ffmpeg version 4.2.2 Copyright (c) 2000-2019 the FFmpeg developers
  built with Apple clang version 11.0.0 (clang-1100.0.33.16)
  configuration: --prefix=/usr/local/Cellar/ffmpeg/4.2.2_1 --enable-shared --enable-pthreads --enable-version3 --enable-avresample --cc=clang --host-cflags='-I/Library/Java/JavaVirtualMachines/adoptopenjdk-13.0.1.jdk/Contents/Home/include -I/Library/Java/JavaVirtualMachines/adoptopenjdk-13.0.1.jdk/Contents/Home/include/darwin -fno-stack-check' --host-ldflags= --enable-ffplay --enable-gnutls --enable-gpl --enable-libaom --enable-libbluray --enable-libmp3lame --enable-libopus --enable-librubberband --enable-libsnappy --enable-libtesseract --enable-libtheora --enable-libvidstab --enable-libvorbis --enable-libvpx --enable-libwebp --enable-libx264 --enable-libx265 --enable-libxvid --enable-lzma --enable-libfontconfig --enable-libfreetype --enable-frei0r --enable-libass --enable-libopencore-amrnb --enable-libopencore-amrwb --enable-libopenjpeg --enable-librtmp --enable-libspeex --enable-libsoxr --enable-videotoolbox --disable-libjack --disable-indev=jack
  libavutil      56. 31.100 / 56. 31.100
  libavcodec     58. 54.100 / 58. 54.100
  libavformat    58. 29.100 / 58. 29.100
  libavdevice    58.  8.100 / 58.  8.100
  libavfilter     7. 57.100 /  7. 57.100
  libavresample   4.  0.  0 /  4.  0.  0
  libswscale      5.  5.100 /  5.  5.100
  libswresample   3.  5.100 /  3.  5.100
  libpostproc    55.  5.100 / 55.  5.100
Input #0, image2pipe, from 'pipe:':
  Duration: N/A, bitrate: N/A
    Stream #0:0: Video: ppm, rgb24, 640x480, 24 fps, 24 tbr, 24 tbn, 24 tbc
Stream mapping:
  Stream #0:0 -> #0:0 (ppm (native) -> h264 (libx264))
[libx264 @ 0x7faa7d00c200] using cpu capabilities: MMX2 SSE2Fast SSSE3 SSE4.2 AVX FMA3 BMI2 AVX2
[libx264 @ 0x7faa7d00c200] profile High, level 3.0
[libx264 @ 0x7faa7d00c200] 264 - core 155 r2917 0a84d98 - H.264/MPEG-4 AVC codec - Copyleft 2003-2018 - http://www.videolan.org/x264.html - options: cabac=1 ref=3 deblock=1:0:0 analyse=0x3:0x113 me=hex subme=7 psy=1 psy_rd=1.00:0.00 mixed_ref=1 me_range=16 chroma_me=1 trellis=1 8x8dct=1 cqm=0 deadzone=21,11 fast_pskip=1 chroma_qp_offset=-2 threads=12 lookahead_threads=2 sliced_threads=0 nr=0 decimate=1 interlaced=0 bluray_compat=0 constrained_intra=0 bframes=3 b_pyramid=2 b_adapt=1 b_bias=0 direct=1 weightb=1 open_gop=0 weightp=2 keyint=250 keyint_min=24 scenecut=40 intra_refresh=0 rc_lookahead=40 rc=abr mbtree=1 bitrate=2000 ratetol=1.0 qcomp=0.60 qpmin=0 qpmax=69 qpstep=4 ip_ratio=1.40 aq=1:1.00
Output #0, mp4, to './mission_records/64533351-b2cc-46b7-98df-205b18350945/video.mp4':
  Metadata:
    encoder         : Lavf58.29.100
    Stream #0:0: Video: h264 (libx264) (avc1 / 0x31637661), yuv420p, 640x480, q=-1--1, 2000 kb/s, 24 fps, 12288 tbn, 24 tbc
    Metadata:
      encoder         : Lavc58.54.100 libx264
    Side data:
      cpb: bitrate max/min/avg: 0/0/2000000 buffer size: 0 vbv_delay: -1
frame=   12 fps=0.0 q=0.0 size=       0kB time=00:00:00.00 bitrate=N/A speed=   0x    frame=   17 fps= 15 q=0.0 size=       0kB time=00:00:00.00 bitrate=N/A speed=   0x    frame=   22 fps= 12 q=0.0 size=       0kB time=00:00:00.00 bitrate=N/A speed=   0x    frame=   27 fps= 12 q=0.0 size=       0kB time=00:00:00.00 bitrate=N/A speed=   0x    frame=   32 fps= 11 q=0.0 size=       0kB time=00:00:00.00 bitrate=N/A speed=   0x    frame=   37 fps= 11 q=0.0 size=       0kB time=00:00:00.00 bitrate=N/A speed=   0x    frame=   42 fps= 11 q=0.0 size=       0kB time=00:00:00.00 bitrate=N/A speed=   0x    frame=   47 fps= 11 q=0.0 size=       0kB time=00:00:00.00 bitrate=N/A speed=   0x    frame=   52 fps= 10 q=0.0 size=       0kB time=00:00:00.00 bitrate=N/A speed=   0x    frame=   57 fps= 10 q=22.0 size=       0kB time=-00:00:00.08 bitrate=N/A speed=N/A    frame=   62 fps= 10 q=24.0 size=       0kB time=00:00:00.12 bitrate=   3.1kbits/s speed=0.0205x    frame=   67 fps= 10 q=16.0 size=       0kB time=00:00:00.33 bitrate=   1.2kbits/s speed=0.0502x    frame=   72 fps= 10 q=15.0 size=       0kB time=00:00:00.54 bitrate=   0.7kbits/s speed=0.0755x    frame=   77 fps= 10 q=13.0 size=       0kB time=00:00:00.75 bitrate=   0.5kbits/s speed=0.0971x    frame=   82 fps=9.9 q=13.0 size=       0kB time=00:00:00.95 bitrate=   0.4kbits/s speed=0.116x    frame=   87 fps=9.9 q=12.0 size=       0kB time=00:00:01.16 bitrate=   0.3kbits/s speed=0.132x    frame=   92 fps=9.8 q=12.0 size=       0kB time=00:00:01.37 bitrate=   0.3kbits/s speed=0.147x    frame=   97 fps=9.8 q=12.0 size=       0kB time=00:00:01.58 bitrate=   0.2kbits/s speed=0.16x    frame=  102 fps=9.8 q=11.0 size=     256kB time=00:00:01.79 bitrate=1170.7kbits/s speed=0.171x    frame=  107 fps=9.7 q=11.0 size=     256kB time=00:00:02.00 bitrate=1048.7kbits/s speed=0.182x    frame=  112 fps=9.7 q=10.0 size=     256kB time=00:00:02.20 bitrate= 949.8kbits/s speed=0.192x    frame=  117 fps=9.7 q=11.0 size=     256kB time=00:00:02.41 bitrate= 867.9kbits/s speed= 0.2x    frame=  122 fps=9.7 q=11.0 size=     256kB time=00:00:02.62 bitrate= 799.0kbits/s speed=0.208x    frame=  127 fps=9.6 q=10.0 size=     512kB time=00:00:02.83 bitrate=1480.4kbits/s speed=0.215x    frame=  132 fps=9.6 q=10.0 size=     512kB time=00:00:03.04 bitrate=1379.0kbits/s speed=0.222x    frame=  137 fps=9.6 q=10.0 size=     512kB time=00:00:03.25 bitrate=1290.6kbits/s speed=0.228x    frame=  142 fps=9.6 q=10.0 size=     512kB time=00:00:03.45 bitrate=1212.9kbits/s speed=0.234x    frame=  147 fps=9.6 q=10.0 size=     512kB time=00:00:03.66 bitrate=1144.0kbits/s speed=0.239x    frame=  152 fps=9.6 q=10.0 size=     512kB time=00:00:03.87 bitrate=1082.5kbits/s speed=0.244x    frame=  157 fps=9.5 q=10.0 size=     768kB time=00:00:04.08 bitrate=1540.8kbits/s speed=0.248x    frame=  162 fps=9.5 q=10.0 size=     768kB time=00:00:04.29 bitrate=1466.0kbits/s speed=0.252x    frame=  167 fps=9.5 q=10.0 size=     768kB time=00:00:04.50 bitrate=1398.2kbits/s speed=0.256x    frame=  172 fps=9.5 q=10.0 size=     768kB time=00:00:04.70 bitrate=1336.3kbits/s speed=0.259x    frame=  177 fps=9.4 q=10.0 size=     768kB time=00:00:04.91 bitrate=1279.7kbits/s speed=0.262x    frame=  182 fps=9.4 q=10.0 size=    1024kB time=00:00:05.12 bitrate=1636.9kbits/s speed=0.264x    frame=  187 fps=9.4 q=12.0 size=    1024kB time=00:00:05.33 bitrate=1572.9kbits/s speed=0.267x    frame=  192 fps=9.3 q=12.0 size=    1024kB time=00:00:05.54 bitrate=1513.8kbits/s speed=0.269x    frame=  197 fps=9.3 q=12.0 size=    1280kB time=00:00:05.75 bitrate=1823.7kbits/s speed=0.272x    frame=  202 fps=9.3 q=13.0 size=    1536kB time=00:00:05.95 bitrate=2111.9kbits/s speed=0.274x    frame=  207 fps=9.3 q=14.0 size=    1536kB time=00:00:06.16 bitrate=2040.5kbits/s speed=0.277x    frame=  212 fps=9.3 q=15.0 size=    1792kB time=00:00:06.37 bitrate=2302.8kbits/s speed=0.279x    frame=  217 fps=9.3 q=16.0 size=    1792kB time=00:00:06.58 bitrate=2229.9kbits/s speed=0.282x    frame=  222 fps=9.3 q=16.0 size=    1792kB time=00:00:06.79 bitrate=2161.5kbits/s speed=0.284x    frame=  227 fps=9.2 q=16.0 size=    1792kB time=00:00:07.00 bitrate=2097.2kbits/s speed=0.285x    frame=  232 fps=9.2 q=16.0 size=    2048kB time=00:00:07.20 bitrate=2327.5kbits/s speed=0.286x    frame=  237 fps=9.2 q=12.0 size=    2048kB time=00:00:07.41 bitrate=2262.1kbits/s speed=0.288x    frame=  242 fps=9.2 q=16.0 size=    2048kB time=00:00:07.62 bitrate=2200.3kbits/s speed=0.289x    frame=  247 fps=9.2 q=16.0 size=    2304kB time=00:00:07.83 bitrate=2409.5kbits/s speed=0.291x    frame=  252 fps=9.2 q=16.0 size=    2304kB time=00:00:08.04 bitrate=2347.1kbits/s speed=0.293x    frame=  257 fps=9.2 q=17.0 size=    2304kB time=00:00:08.25 bitrate=2287.8kbits/s speed=0.294x    frame=  262 fps=9.2 q=17.0 size=    2304kB time=00:00:08.45 bitrate=2231.5kbits/s speed=0.296x    frame=  267 fps=9.1 q=17.0 size=    2560kB time=00:00:08.66 bitrate=2419.8kbits/s speed=0.297x    frame=  272 fps=9.1 q=17.0 size=    2560kB time=00:00:08.87 bitrate=2363.0kbits/s speed=0.298x    frame=  277 fps=9.1 q=17.0 size=    2560kB time=00:00:09.08 bitrate=2308.8kbits/s speed= 0.3x    frame=  282 fps=9.1 q=17.0 size=    2560kB time=00:00:09.29 bitrate=2257.0kbits/s speed=0.301x    frame=  287 fps=9.1 q=17.0 size=    2560kB time=00:00:09.50 bitrate=2207.6kbits/s speed=0.302x    frame=  292 fps=9.1 q=17.0 size=    2816kB time=00:00:09.70 bitrate=2376.2kbits/s speed=0.303x    frame=  297 fps=9.1 q=17.0 size=    2816kB time=00:00:09.91 bitrate=2326.3kbits/s speed=0.305x    frame=  302 fps=9.1 q=17.0 size=    2816kB time=00:00:10.12 bitrate=2278.4kbits/s speed=0.306x    frame=  307 fps=9.1 q=17.0 size=    2816kB time=00:00:10.33 bitrate=2232.5kbits/s speed=0.306x    frame=  312 fps=9.1 q=17.0 size=    2816kB time=00:00:10.54 bitrate=2188.4kbits/s speed=0.307x    frame=  317 fps=9.1 q=17.0 size=    3072kB time=00:00:10.75 bitrate=2341.0kbits/s speed=0.308x    frame=  322 fps=9.1 q=17.0 size=    3072kB time=00:00:10.95 bitrate=2296.5kbits/s speed=0.309x    frame=  327 fps=9.1 q=17.0 size=    3072kB time=00:00:11.16 bitrate=2253.7kbits/s speed=0.31x    frame=  331 fps=9.0 q=17.0 size=    3072kB time=00:00:11.33 bitrate=2220.5kbits/s speed=0.31x    frame=  335 fps=9.0 q=17.0 size=    3072kB time=00:00:11.50 bitrate=2188.4kbits/s speed=0.31x    frame=  340 fps=9.0 q=17.0 size=    3328kB time=00:00:11.70 bitrate=2328.5kbits/s speed=0.31x    frame=  344 fps=9.0 q=18.0 size=    3328kB time=00:00:11.87 bitrate=2295.8kbits/s speed=0.311x    frame=  349 fps=9.0 q=18.0 size=    3328kB time=00:00:12.08 bitrate=2256.3kbits/s speed=0.311x    frame=  354 fps=9.0 q=18.0 size=    3584kB time=00:00:12.29 bitrate=2388.6kbits/s speed=0.312x    frame=  359 fps=9.0 q=18.0 size=    3584kB time=00:00:12.50 bitrate=2348.8kbits/s speed=0.312x    frame=  364 fps=9.0 q=18.0 size=    3584kB time=00:00:12.70 bitrate=2310.3kbits/s speed=0.313x    frame=  369 fps=9.0 q=19.0 size=    3840kB time=00:00:12.91 bitrate=2435.4kbits/s speed=0.314x    frame=  374 fps=9.0 q=19.0 size=    3840kB time=00:00:13.12 bitrate=2396.8kbits/s speed=0.314x    frame=  378 fps=8.9 q=19.0 size=    3840kB time=00:00:13.29 bitrate=2366.7kbits/s speed=0.314x    frame=  383 fps=8.9 q=19.0 size=    3840kB time=00:00:13.50 bitrate=2330.2kbits/s speed=0.315x    frame=  388 fps=8.9 q=19.0 size=    3840kB time=00:00:13.70 bitrate=2294.8kbits/s speed=0.315x    frame=  393 fps=8.9 q=19.0 size=    3840kB time=00:00:13.91 bitrate=2260.4kbits/s speed=0.316x    frame=  397 fps=8.9 q=19.0 size=    4096kB time=00:00:14.08 bitrate=2382.6kbits/s speed=0.316x    frame=  401 fps=8.9 q=18.0 size=    4096kB time=00:00:14.25 bitrate=2354.7kbits/s speed=0.315x    frame=  405 fps=8.8 q=18.0 size=    4096kB time=00:00:14.41 bitrate=2327.5kbits/s speed=0.315x    frame=  410 fps=8.8 q=18.0 size=    4096kB time=00:00:14.62 bitrate=2294.3kbits/s speed=0.315x    frame=  415 fps=8.8 q=17.0 size=    4096kB time=00:00:14.83 bitrate=2262.1kbits/s speed=0.316x    frame=  420 fps=8.8 q=17.0 size=    4096kB time=00:00:15.04 bitrate=2230.8kbits/s speed=0.316x    frame=  425 fps=8.8 q=17.0 size=    4096kB time=00:00:15.25 bitrate=2200.3kbits/s speed=0.317x    frame=  430 fps=8.8 q=17.0 size=    4096kB time=00:00:15.45 bitrate=2170.7kbits/s speed=0.317x    frame=  435 fps=8.8 q=17.0 size=    4096kB time=00:00:15.66 bitrate=2141.8kbits/s speed=0.318x    frame=  440 fps=8.8 q=16.0 size=    4096kB time=00:00:15.87 bitrate=2113.7kbits/s speed=0.318x    frame=  445 fps=8.8 q=16.0 size=    4096kB time=00:00:16.08 bitrate=2086.3kbits/s speed=0.318x    frame=  450 fps=8.8 q=16.0 size=    4096kB time=00:00:16.29 bitrate=2059.6kbits/s speed=0.319x    frame=  455 fps=8.8 q=16.0 size=    4096kB time=00:00:16.50 bitrate=2033.6kbits/s speed=0.319x    frame=  460 fps=8.8 q=16.0 size=    4096kB time=00:00:16.70 bitrate=2008.3kbits/s speed=0.32x    frame=  465 fps=8.8 q=15.0 size=    4096kB time=00:00:16.91 bitrate=1983.5kbits/s speed=0.32x    frame=  470 fps=8.8 q=15.0 size=    4096kB time=00:00:17.12 bitrate=1959.4kbits/s speed=0.321x    frame=  475 fps=8.8 q=15.0 size=    4096kB time=00:00:17.33 bitrate=1935.8kbits/s speed=0.321x    frame=  480 fps=8.8 q=15.0 size=    4096kB time=00:00:17.54 bitrate=1912.9kbits/s speed=0.321x    frame=  485 fps=8.8 q=15.0 size=    4096kB time=00:00:17.75 bitrate=1890.4kbits/s speed=0.322x    frame=  490 fps=8.8 q=15.0 size=    4096kB time=00:00:17.95 bitrate=1868.5kbits/s speed=0.322x    frame=  495 fps=8.8 q=15.0 size=    4352kB time=00:00:18.16 bitrate=1962.5kbits/s speed=0.322x    frame=  500 fps=8.8 q=15.0 size=    4352kB time=00:00:18.37 bitrate=1940.2kbits/s speed=0.323x    frame=  505 fps=8.8 q=15.0 size=    4608kB time=00:00:18.58 bitrate=2031.3kbits/s speed=0.323x    frame=  510 fps=8.8 q=15.0 size=    4608kB time=00:00:18.79 bitrate=2008.8kbits/s speed=0.324x    frame=  515 fps=8.8 q=15.0 size=    4608kB time=00:00:19.00 bitrate=1986.8kbits/s speed=0.324x    frame=  520 fps=8.8 q=15.0 size=    4608kB time=00:00:19.20 bitrate=1965.2kbits/s speed=0.324x    frame=  525 fps=8.8 q=14.0 size=    4608kB time=00:00:19.41 bitrate=1944.2kbits/s speed=0.325x    frame=  530 fps=8.8 q=14.0 size=    4608kB time=00:00:19.62 bitrate=1923.5kbits/s speed=0.325x    frame=  535 fps=8.8 q=14.0 size=    4608kB time=00:00:19.83 bitrate=1903.3kbits/s speed=0.326x    frame=  540 fps=8.8 q=14.0 size=    4608kB time=00:00:20.04 bitrate=1883.5kbits/s speed=0.326x    frame=  545 fps=8.8 q=14.0 size=    4608kB time=00:00:20.25 bitrate=1864.1kbits/s speed=0.326x    frame=  550 fps=8.8 q=14.0 size=    4608kB time=00:00:20.45 bitrate=1845.2kbits/s speed=0.327x    frame=  555 fps=8.8 q=13.0 size=    4864kB time=00:00:20.66 bitrate=1928.0kbits/s speed=0.327x    frame=  560 fps=8.8 q=13.0 size=    4864kB time=00:00:20.87 bitrate=1908.8kbits/s speed=0.327x    frame=  565 fps=8.8 q=13.0 size=    4864kB time=00:00:21.08 bitrate=1889.9kbits/s speed=0.328x    frame=  570 fps=8.8 q=13.0 size=    4864kB time=00:00:21.29 bitrate=1871.4kbits/s speed=0.328x    frame=  575 fps=8.8 q=13.0 size=    4864kB time=00:00:21.50 bitrate=1853.3kbits/s speed=0.328x    frame=  580 fps=8.8 q=13.0 size=    5120kB time=00:00:21.70 bitrate=1932.1kbits/s speed=0.329x    frame=  585 fps=8.8 q=14.0 size=    5120kB time=00:00:21.91 bitrate=1913.8kbits/s speed=0.329x    frame=  590 fps=8.8 q=14.0 size=    5120kB time=00:00:22.12 bitrate=1895.7kbits/s speed=0.329x    frame=  595 fps=8.8 q=14.0 size=    5120kB time=00:00:22.33 bitrate=1878.1kbits/s speed=0.329x    frame=  600 fps=8.8 q=14.0 size=    5376kB time=00:00:22.54 bitrate=1953.7kbits/s speed=0.33x    frame=  605 fps=8.8 q=15.0 size=    5376kB time=00:00:22.75 bitrate=1935.8kbits/s speed=0.33x    frame=  610 fps=8.8 q=15.0 size=    5632kB time=00:00:22.95 bitrate=2009.6kbits/s speed=0.33x    frame=  615 fps=8.8 q=16.0 size=    5888kB time=00:00:23.16 bitrate=2082.1kbits/s speed=0.33x    frame=  620 fps=8.8 q=17.0 size=    5888kB time=00:00:23.37 bitrate=2063.5kbits/s speed=0.331x    frame=  625 fps=8.8 q=17.0 size=    6144kB time=00:00:23.58 bitrate=2134.2kbits/s speed=0.331x    frame=  630 fps=8.8 q=13.0 size=    6144kB time=00:00:23.79 bitrate=2115.5kbits/s speed=0.331x    frame=  635 fps=8.8 q=17.0 size=    6400kB time=00:00:24.00 bitrate=2184.5kbits/s speed=0.331x    frame=  640 fps=8.8 q=18.0 size=    6400kB time=00:00:24.20 bitrate=2165.7kbits/s speed=0.332x    frame=  645 fps=8.8 q=18.0 size=    6400kB time=00:00:24.41 bitrate=2147.3kbits/s speed=0.332x    frame=  650 fps=8.8 q=18.0 size=    6656kB time=00:00:24.62 bitrate=2214.3kbits/s speed=0.332x    frame=  655 fps=8.8 q=18.0 size=    6656kB time=00:00:24.83 bitrate=2195.7kbits/s speed=0.333x    frame=  660 fps=8.8 q=18.0 size=    6656kB time=00:00:25.04 bitrate=2177.4kbits/s speed=0.333x    frame=  665 fps=8.8 q=18.0 size=    6912kB time=00:00:25.25 bitrate=2242.5kbits/s speed=0.333x    frame=  670 fps=8.8 q=18.0 size=    6912kB time=00:00:25.45 bitrate=2224.2kbits/s speed=0.333x    frame=  675 fps=8.8 q=19.0 size=    6912kB time=00:00:25.66 bitrate=2206.1kbits/s speed=0.334x    frame=  680 fps=8.8 q=19.0 size=    7168kB time=00:00:25.87 bitrate=2269.4kbits/s speed=0.334x    frame=  685 fps=8.8 q=15.0 size=    7168kB time=00:00:26.08 bitrate=2251.3kbits/s speed=0.334x    frame=  690 fps=8.8 q=19.0 size=    7168kB time=00:00:26.29 bitrate=2233.4kbits/s speed=0.335x    frame=  695 fps=8.8 q=19.0 size=    7168kB time=00:00:26.50 bitrate=2215.9kbits/s speed=0.335x    frame=  700 fps=8.8 q=19.0 size=    7424kB time=00:00:26.70 bitrate=2277.1kbits/s speed=0.335x    frame=  705 fps=8.8 q=19.0 size=    7424kB time=00:00:26.91 bitrate=2259.5kbits/s speed=0.335x    frame=  710 fps=8.8 q=19.0 size=    7424kB time=00:00:27.12 bitrate=2242.1kbits/s speed=0.336x    frame=  715 fps=8.8 q=19.0 size=    7424kB time=00:00:27.33 bitrate=2225.0kbits/s speed=0.336x    frame=  720 fps=8.8 q=19.0 size=    7680kB time=00:00:27.54 bitrate=2284.3kbits/s speed=0.336x    frame=  725 fps=8.8 q=19.0 size=    7680kB time=00:00:27.75 bitrate=2267.2kbits/s speed=0.336x    frame=  730 fps=8.8 q=19.0 size=    7680kB time=00:00:27.95 bitrate=2250.3kbits/s speed=0.337x    frame=  735 fps=8.8 q=19.0 size=    7680kB time=00:00:28.16 bitrate=2233.7kbits/s speed=0.337x    frame=  740 fps=8.8 q=19.0 size=    7680kB time=00:00:28.37 bitrate=2217.3kbits/s speed=0.337x    frame=  745 fps=8.8 q=19.0 size=    7680kB time=00:00:28.58 bitrate=2201.1kbits/s speed=0.338x    frame=  750 fps=8.8 q=19.0 size=    7680kB time=00:00:28.79 bitrate=2185.2kbits/s speed=0.338x    frame=  755 fps=8.8 q=18.0 size=    7680kB time=00:00:29.00 bitrate=2169.5kbits/s speed=0.338x    frame=  760 fps=8.8 q=18.0 size=    7680kB time=00:00:29.20 bitrate=2154.0kbits/s speed=0.338x    frame=  765 fps=8.8 q=18.0 size=    7936kB time=00:00:29.41 bitrate=2210.0kbits/s speed=0.338x    frame=  770 fps=8.8 q=18.0 size=    7936kB time=00:00:29.62 bitrate=2194.5kbits/s speed=0.338x    frame=  775 fps=8.8 q=18.0 size=    7936kB time=00:00:29.83 bitrate=2179.2kbits/s speed=0.339x    frame=  780 fps=8.8 q=18.0 size=    7936kB time=00:00:30.04 bitrate=2164.1kbits/s speed=0.339x    frame=  785 fps=8.8 q=18.0 size=    7936kB time=00:00:30.25 bitrate=2149.2kbits/s speed=0.339x    frame=  790 fps=8.8 q=18.0 size=    7936kB time=00:00:30.45 bitrate=2134.5kbits/s speed=0.339x    frame=  795 fps=8.8 q=18.0 size=    7936kB time=00:00:30.66 bitrate=2120.0kbits/s speed=0.339x    frame=  800 fps=8.8 q=18.0 size=    7936kB time=00:00:30.87 bitrate=2105.6kbits/s speed=0.339x    frame=  805 fps=8.8 q=18.0 size=    8192kB time=00:00:31.08 bitrate=2159.0kbits/s speed=0.339x    frame=  810 fps=8.8 q=18.0 size=    8192kB time=00:00:31.29 bitrate=2144.6kbits/s speed=0.339x    frame=  815 fps=8.8 q=18.0 size=    8192kB time=00:00:31.50 bitrate=2130.4kbits/s speed=0.339x    frame=  820 fps=8.8 q=18.0 size=    8192kB time=00:00:31.70 bitrate=2116.4kbits/s speed=0.339x    frame=  825 fps=8.8 q=18.0 size=    8192kB time=00:00:31.91 bitrate=2102.6kbits/s speed=0.34x    frame=  830 fps=8.8 q=18.0 size=    8448kB time=00:00:32.12 bitrate=2154.3kbits/s speed=0.34x    frame=  835 fps=8.8 q=18.0 size=    8448kB time=00:00:32.33 bitrate=2140.4kbits/s speed=0.34x    frame=  840 fps=8.8 q=18.0 size=    8448kB time=00:00:32.54 bitrate=2126.7kbits/s speed=0.34x    frame=  845 fps=8.8 q=18.0 size=    8704kB time=00:00:32.75 bitrate=2177.2kbits/s speed=0.34x    frame=  850 fps=8.8 q=19.0 size=    8704kB time=00:00:32.95 bitrate=2163.4kbits/s speed=0.34x    frame=  855 fps=8.8 q=19.0 size=    8704kB time=00:00:33.16 bitrate=2149.9kbits/s speed=0.341x    frame=  860 fps=8.8 q=19.0 size=    8960kB time=00:00:33.37 bitrate=2199.3kbits/s speed=0.341x    frame=  865 fps=8.8 q=15.0 size=    8960kB time=00:00:33.58 bitrate=2185.6kbits/s speed=0.341x    frame=  870 fps=8.8 q=18.0 size=    8960kB time=00:00:33.79 bitrate=2172.1kbits/s speed=0.341x    frame=  875 fps=8.8 q=18.0 size=    8960kB time=00:00:34.00 bitrate=2158.8kbits/s speed=0.341x    frame=  880 fps=8.8 q=18.0 size=    8960kB time=00:00:34.20 bitrate=2145.7kbits/s speed=0.342x    frame=  885 fps=8.8 q=18.0 size=    8960kB time=00:00:34.41 bitrate=2132.7kbits/s speed=0.342x    frame=  890 fps=8.8 q=15.0 size=    8960kB time=00:00:34.62 bitrate=2119.9kbits/s speed=0.342x    frame=  895 fps=8.8 q=18.0 size=    8960kB time=00:00:34.83 bitrate=2107.2kbits/s speed=0.342x    frame=  900 fps=8.8 q=18.0 size=    9216kB time=00:00:35.04 bitrate=2154.5kbits/s speed=0.342x    frame=  905 fps=8.8 q=18.0 size=    9216kB time=00:00:35.25 bitrate=2141.8kbits/s speed=0.342x    frame=  909 fps=8.8 q=18.0 size=    9216kB time=00:00:35.41 bitrate=2131.7kbits/s speed=0.342x    frame=  913 fps=8.8 q=18.0 size=    9216kB time=00:00:35.58 bitrate=2121.7kbits/s speed=0.342x    frame=  917 fps=8.8 q=18.0 size=    9472kB time=00:00:35.75 bitrate=2170.5kbits/s speed=0.342x    frame=  921 fps=8.8 q=19.0 size=    9472kB time=00:00:35.91 bitrate=2160.4kbits/s speed=0.342x    frame=  925 fps=8.8 q=19.0 size=    9472kB time=00:00:36.08 bitrate=2150.4kbits/s speed=0.342x    frame=  929 fps=8.8 q=19.0 size=    9728kB time=00:00:36.25 bitrate=2198.4kbits/s speed=0.342x    frame=  934 fps=8.8 q=19.0 size=    9728kB time=00:00:36.45 bitrate=2185.8kbits/s speed=0.342x    frame=  938 fps=8.7 q=19.0 size=    9728kB time=00:00:36.62 bitrate=2175.9kbits/s speed=0.341x    frame=  942 fps=8.7 q=19.0 size=    9984kB time=00:00:36.79 bitrate=2223.0kbits/s speed=0.341x    frame=  946 fps=8.7 q=20.0 size=    9984kB time=00:00:36.95 bitrate=2213.0kbits/s speed=0.341x    frame=  950 fps=8.7 q=20.0 size=    9984kB time=00:00:37.12 bitrate=2203.1kbits/s speed=0.341x    frame=  955 fps=8.7 q=19.0 size=    9984kB time=00:00:37.33 bitrate=2190.8kbits/s speed=0.341x    frame=  959 fps=8.7 q=19.0 size=    9984kB time=00:00:37.50 bitrate=2181.0kbits/s speed=0.341x    frame=  963 fps=8.7 q=19.0 size=    9984kB time=00:00:37.66 bitrate=2171.4kbits/s speed=0.341x    frame=  968 fps=8.7 q=19.0 size=    9984kB time=00:00:37.87 bitrate=2159.4kbits/s speed=0.341x    frame=  973 fps=8.7 q=19.0 size=   10240kB time=00:00:38.08 bitrate=2202.7kbits/s speed=0.341x    frame=  978 fps=8.7 q=19.0 size=   10240kB time=00:00:38.29 bitrate=2190.7kbits/s speed=0.341x    frame=  983 fps=8.7 q=19.0 size=   10240kB time=00:00:38.50 bitrate=2178.9kbits/s speed=0.341x    frame=  988 fps=8.7 q=19.0 size=   10240kB time=00:00:38.70 bitrate=2167.1kbits/s speed=0.341x    frame=  993 fps=8.7 q=19.0 size=   10240kB time=00:00:38.91 bitrate=2155.5kbits/s speed=0.341x    frame=  998 fps=8.7 q=18.0 size=   10240kB time=00:00:39.12 bitrate=2144.1kbits/s speed=0.342x    frame= 1003 fps=8.7 q=18.0 size=   10240kB time=00:00:39.33 bitrate=2132.7kbits/s speed=0.342x    frame= 1008 fps=8.7 q=18.0 size=   10240kB time=00:00:39.54 bitrate=2121.5kbits/s speed=0.342x    frame= 1013 fps=8.7 q=18.0 size=   10240kB time=00:00:39.75 bitrate=2110.3kbits/s speed=0.342x    frame= 1018 fps=8.7 q=18.0 size=   10240kB time=00:00:39.95 bitrate=2099.3kbits/s speed=0.343x    frame= 1023 fps=8.7 q=18.0 size=   10240kB time=00:00:40.16 bitrate=2088.5kbits/s speed=0.343x    frame= 1028 fps=8.7 q=18.0 size=   10240kB time=00:00:40.37 bitrate=2077.7kbits/s speed=0.343x    frame= 1033 fps=8.7 q=18.0 size=   10496kB time=00:00:40.58 bitrate=2118.7kbits/s speed=0.343x    frame= 1038 fps=8.7 q=18.0 size=   10496kB time=00:00:40.79 bitrate=2107.9kbits/s speed=0.343x    frame= 1043 fps=8.7 q=18.0 size=   10496kB time=00:00:41.00 bitrate=2097.2kbits/s speed=0.343x    frame= 1048 fps=8.7 q=18.0 size=   10496kB time=00:00:41.20 bitrate=2086.6kbits/s speed=0.344x    frame= 1053 fps=8.7 q=18.0 size=   10752kB time=00:00:41.41 bitrate=2126.7kbits/s speed=0.344x    frame= 1058 fps=8.7 q=18.0 size=   10752kB time=00:00:41.62 bitrate=2116.1kbits/s speed=0.344x    frame= 1063 fps=8.7 q=18.0 size=   10752kB time=00:00:41.83 bitrate=2105.5kbits/s speed=0.344x    frame= 1068 fps=8.7 q=18.0 size=   10752kB time=00:00:42.04 bitrate=2095.1kbits/s speed=0.344x    frame= 1073 fps=8.7 q=19.0 size=   11008kB time=00:00:42.25 bitrate=2134.4kbits/s speed=0.344x    frame= 1078 fps=8.7 q=19.0 size=   11008kB time=00:00:42.45 bitrate=2123.9kbits/s speed=0.344x    frame= 1083 fps=8.7 q=19.0 size=   11008kB time=00:00:42.66 bitrate=2113.5kbits/s speed=0.344x    frame= 1088 fps=8.7 q=19.0 size=   11264kB time=00:00:42.87 bitrate=2152.2kbits/s speed=0.344x    frame= 1093 fps=8.7 q=19.0 size=   11264kB time=00:00:43.08 bitrate=2141.8kbits/s speed=0.345x    frame= 1098 fps=8.7 q=19.0 size=   11264kB time=00:00:43.29 bitrate=2131.5kbits/s speed=0.345x    frame= 1103 fps=8.7 q=19.0 size=   11264kB time=00:00:43.50 bitrate=2121.3kbits/s speed=0.345x    frame= 1108 fps=8.7 q=19.0 size=   11264kB time=00:00:43.70 bitrate=2111.2kbits/s speed=0.345x    frame= 1113 fps=8.7 q=18.0 size=   11264kB time=00:00:43.91 bitrate=2101.1kbits/s speed=0.345x    frame= 1118 fps=8.7 q=18.0 size=   11264kB time=00:00:44.12 bitrate=2091.2kbits/s speed=0.345x    frame= 1123 fps=8.7 q=18.0 size=   11264kB time=00:00:44.33 bitrate=2081.4kbits/s speed=0.345x    frame= 1128 fps=8.8 q=18.0 size=   11520kB time=00:00:44.54 bitrate=2118.7kbits/s speed=0.346x    frame= 1133 fps=8.8 q=18.0 size=   11520kB time=00:00:44.75 bitrate=2108.9kbits/s speed=0.346x    frame= 1138 fps=8.8 q=18.0 size=   11520kB time=00:00:44.95 bitrate=2099.1kbits/s speed=0.346x    frame= 1143 fps=8.8 q=18.0 size=   11520kB time=00:00:45.16 bitrate=2089.4kbits/s speed=0.346x    frame= 1148 fps=8.8 q=18.0 size=   11776kB time=00:00:45.37 bitrate=2126.0kbits/s speed=0.346x    frame= 1153 fps=8.8 q=19.0 size=   11776kB time=00:00:45.58 bitrate=2116.3kbits/s speed=0.346x    frame= 1158 fps=8.8 q=19.0 size=   11776kB time=00:00:45.79 bitrate=2106.7kbits/s speed=0.347x    frame= 1163 fps=8.8 q=19.0 size=   11776kB time=00:00:46.00 bitrate=2097.2kbits/s speed=0.347x    frame= 1168 fps=8.8 q=19.0 size=   12032kB time=00:00:46.20 bitrate=2133.1kbits/s speed=0.347x    frame= 1173 fps=8.8 q=19.0 size=   12032kB time=00:00:46.41 bitrate=2123.5kbits/s speed=0.347x    frame= 1178 fps=8.8 q=19.0 size=   12032kB time=00:00:46.62 bitrate=2114.0kbits/s speed=0.347x    frame= 1183 fps=8.8 q=19.0 size=   12032kB time=00:00:46.83 bitrate=2104.6kbits/s speed=0.347x    frame= 1188 fps=8.8 q=19.0 size=   12032kB time=00:00:47.04 bitrate=2095.3kbits/s speed=0.347x    frame= 1193 fps=8.8 q=19.0 size=   12032kB time=00:00:47.25 bitrate=2086.1kbits/s speed=0.347x    frame= 1198 fps=8.8 q=19.0 size=   12288kB time=00:00:47.45 bitrate=2121.1kbits/s speed=0.347x    frame= 1203 fps=8.8 q=18.0 size=   12288kB time=00:00:47.66 bitrate=2111.8kbits/s speed=0.347x    frame= 1208 fps=8.8 q=16.0 size=   12288kB time=00:00:47.87 bitrate=2102.6kbits/s speed=0.347x    frame= 1213 fps=8.8 q=18.0 size=   12288kB time=00:00:48.08 bitrate=2093.5kbits/s speed=0.348x    frame= 1218 fps=8.8 q=18.0 size=   12288kB time=00:00:48.29 bitrate=2084.5kbits/s speed=0.348x    frame= 1223 fps=8.8 q=18.0 size=   12288kB time=00:00:48.50 bitrate=2075.5kbits/s speed=0.348x    frame= 1228 fps=8.8 q=18.0 size=   12288kB time=00:00:48.70 bitrate=2066.7kbits/s speed=0.348x    frame= 1233 fps=8.8 q=18.0 size=   12288kB time=00:00:48.91 bitrate=2057.9kbits/s speed=0.348x    frame= 1238 fps=8.8 q=18.0 size=   12544kB time=00:00:49.12 bitrate=2091.8kbits/s speed=0.349x    frame= 1243 fps=8.8 q=19.0 size=   12544kB time=00:00:49.33 bitrate=2083.0kbits/s speed=0.349x    frame= 1248 fps=8.8 q=19.0 size=   12800kB time=00:00:49.54 bitrate=2116.6kbits/s speed=0.349x    frame= 1253 fps=8.8 q=19.0 size=   12800kB time=00:00:49.75 bitrate=2107.7kbits/s speed=0.349x    frame= 1258 fps=8.8 q=19.0 size=   13056kB time=00:00:49.95 bitrate=2140.9kbits/s speed=0.349x    frame= 1263 fps=8.8 q=19.0 size=   13056kB time=00:00:50.16 bitrate=2132.0kbits/s speed=0.349x    frame= 1268 fps=8.8 q=19.0 size=   13056kB time=00:00:50.37 bitrate=2123.2kbits/s speed=0.349x    frame= 1273 fps=8.8 q=19.0 size=   13312kB time=00:00:50.58 bitrate=2155.9kbits/s speed=0.349x    frame= 1278 fps=8.8 q=19.0 size=   13312kB time=00:00:50.79 bitrate=2147.0kbits/s speed=0.349x    frame= 1283 fps=8.8 q=19.0 size=   13312kB time=00:00:51.00 bitrate=2138.3kbits/s speed=0.349x    frame= 1288 fps=8.8 q=19.0 size=   13312kB time=00:00:51.20 bitrate=2129.6kbits/s speed=0.35x    frame= 1293 fps=8.8 q=19.0 size=   13312kB time=00:00:51.41 bitrate=2120.9kbits/s speed=0.35x    frame= 1298 fps=8.8 q=19.0 size=   13312kB time=00:00:51.62 bitrate=2112.4kbits/s speed=0.35x    frame= 1303 fps=8.8 q=19.0 size=   13312kB time=00:00:51.83 bitrate=2103.9kbits/s speed=0.35x    frame= 1308 fps=8.8 q=16.0 size=   13568kB time=00:00:52.04 bitrate=2135.8kbits/s speed=0.35x    frame= 1313 fps=8.8 q=19.0 size=   13568kB time=00:00:52.25 bitrate=2127.3kbits/s speed=0.35x    frame= 1318 fps=8.8 q=19.0 size=   13568kB time=00:00:52.45 bitrate=2118.8kbits/s speed=0.351x    frame= 1323 fps=8.8 q=19.0 size=   13568kB time=00:00:52.66 bitrate=2110.4kbits/s speed=0.351x    frame= 1328 fps=8.8 q=19.0 size=   13568kB time=00:00:52.87 bitrate=2102.1kbits/s speed=0.351x    frame= 1333 fps=8.8 q=19.0 size=   13568kB time=00:00:53.08 bitrate=2093.9kbits/s speed=0.351x    frame= 1338 fps=8.8 q=19.0 size=   13824kB time=00:00:53.29 bitrate=2125.0kbits/s speed=0.351x    frame= 1343 fps=8.8 q=19.0 size=   13824kB time=00:00:53.50 bitrate=2116.8kbits/s speed=0.351x    frame= 1348 fps=8.8 q=19.0 size=   13824kB time=00:00:53.70 bitrate=2108.5kbits/s speed=0.352x    frame= 1353 fps=8.8 q=19.0 size=   14080kB time=00:00:53.91 bitrate=2139.3kbits/s speed=0.352x    frame= 1358 fps=8.8 q=19.0 size=   14080kB time=00:00:54.12 bitrate=2131.1kbits/s speed=0.352x    frame= 1363 fps=8.8 q=19.0 size=   14080kB time=00:00:54.33 bitrate=2122.9kbits/s speed=0.352x    frame= 1368 fps=8.8 q=19.0 size=   14080kB time=00:00:54.54 bitrate=2114.8kbits/s speed=0.352x    frame= 1373 fps=8.8 q=19.0 size=   14336kB time=00:00:54.75 bitrate=2145.0kbits/s speed=0.352x    frame= 1378 fps=8.8 q=19.0 size=   14336kB time=00:00:54.95 bitrate=2136.9kbits/s speed=0.353x    frame= 1383 fps=8.8 q=19.0 size=   14336kB time=00:00:55.16 bitrate=2128.8kbits/s speed=0.353x    frame= 1388 fps=8.8 q=20.0 size=   14336kB time=00:00:55.37 bitrate=2120.8kbits/s speed=0.353x    frame= 1393 fps=8.8 q=19.0 size=   14336kB time=00:00:55.58 bitrate=2112.9kbits/s speed=0.353x    frame= 1398 fps=8.9 q=19.0 size=   14592kB time=00:00:55.79 bitrate=2142.6kbits/s speed=0.353x    frame= 1403 fps=8.9 q=19.0 size=   14592kB time=00:00:56.00 bitrate=2134.6kbits/s speed=0.353x    frame= 1408 fps=8.9 q=19.0 size=   14592kB time=00:00:56.20 bitrate=2126.7kbits/s speed=0.354x    frame= 1413 fps=8.9 q=19.0 size=   14592kB time=00:00:56.41 bitrate=2118.8kbits/s speed=0.354x    frame= 1418 fps=8.9 q=20.0 size=   14592kB time=00:00:56.62 bitrate=2111.0kbits/s speed=0.354x    frame= 1423 fps=8.9 q=20.0 size=   14848kB time=00:00:56.83 bitrate=2140.2kbits/s speed=0.354x    frame= 1428 fps=8.9 q=20.0 size=   14848kB time=00:00:57.04 bitrate=2132.4kbits/s speed=0.354x    frame= 1433 fps=8.9 q=19.0 size=   14848kB time=00:00:57.25 bitrate=2124.6kbits/s speed=0.354x    frame= 1438 fps=8.9 q=19.0 size=   14848kB time=00:00:57.45 bitrate=2116.9kbits/s speed=0.354x    frame= 1443 fps=8.9 q=19.0 size=   14848kB time=00:00:57.66 bitrate=2109.3kbits/s speed=0.355x    frame= 1448 fps=8.9 q=19.0 size=   14848kB time=00:00:57.87 bitrate=2101.7kbits/s speed=0.355x    frame= 1453 fps=8.9 q=19.0 size=   14848kB time=00:00:58.08 bitrate=2094.1kbits/s speed=0.355x    frame= 1458 fps=8.9 q=19.0 size=   14848kB time=00:00:58.29 bitrate=2086.7kbits/s speed=0.355x    frame= 1463 fps=8.9 q=19.0 size=   14848kB time=00:00:58.50 bitrate=2079.2kbits/s speed=0.355x    frame= 1468 fps=8.9 q=19.0 size=   14848kB time=00:00:58.70 bitrate=2071.9kbits/s speed=0.355x    frame= 1473 fps=8.9 q=19.0 size=   14848kB time=00:00:58.91 bitrate=2064.5kbits/s speed=0.355x    frame= 1478 fps=8.9 q=18.0 size=   14848kB time=00:00:59.12 bitrate=2057.3kbits/s speed=0.355x    frame= 1483 fps=8.9 q=18.0 size=   14848kB time=00:00:59.33 bitrate=2050.0kbits/s speed=0.356x    frame= 1488 fps=8.9 q=16.0 size=   14848kB time=00:00:59.54 bitrate=2042.9kbits/s speed=0.356x    frame= 1493 fps=8.9 q=18.0 size=   14848kB time=00:00:59.75 bitrate=2035.7kbits/s speed=0.356x    frame= 1498 fps=8.9 q=18.0 size=   15104kB time=00:00:59.95 bitrate=2063.6kbits/s speed=0.356x    frame= 1503 fps=8.9 q=18.0 size=   15104kB time=00:01:00.16 bitrate=2056.5kbits/s speed=0.356x    frame= 1508 fps=8.9 q=18.0 size=   15104kB time=00:01:00.37 bitrate=2049.4kbits/s speed=0.356x    frame= 1513 fps=8.9 q=18.0 size=   15104kB time=00:01:00.58 bitrate=2042.3kbits/s speed=0.356x    frame= 1518 fps=8.9 q=18.0 size=   15360kB time=00:01:00.79 bitrate=2069.8kbits/s speed=0.356x    frame= 1523 fps=8.9 q=18.0 size=   15360kB time=00:01:01.00 bitrate=2062.8kbits/s speed=0.356x    frame= 1528 fps=8.9 q=18.0 size=   15360kB time=00:01:01.20 bitrate=2055.8kbits/s speed=0.356x    frame= 1533 fps=8.9 q=18.0 size=   15360kB time=00:01:01.41 bitrate=2048.8kbits/s speed=0.356x    frame= 1538 fps=8.9 q=18.0 size=   15360kB time=00:01:01.62 bitrate=2041.9kbits/s speed=0.357x    frame= 1543 fps=8.9 q=18.0 size=   15360kB time=00:01:01.83 bitrate=2035.0kbits/s speed=0.357x    frame= 1548 fps=8.9 q=18.0 size=   15360kB time=00:01:02.04 bitrate=2028.1kbits/s speed=0.357x    frame= 1553 fps=8.9 q=18.0 size=   15616kB time=00:01:02.25 bitrate=2055.0kbits/s speed=0.357x    frame= 1558 fps=8.9 q=18.0 size=   15616kB time=00:01:02.45 bitrate=2048.2kbits/s speed=0.357x    frame= 1563 fps=8.9 q=15.0 size=   15616kB time=00:01:02.66 bitrate=2041.4kbits/s speed=0.357x    frame= 1568 fps=8.9 q=18.0 size=   15616kB time=00:01:02.87 bitrate=2034.6kbits/s speed=0.357x    frame= 1573 fps=8.9 q=18.0 size=   15616kB time=00:01:03.08 bitrate=2027.9kbits/s speed=0.357x    frame= 1578 fps=8.9 q=18.0 size=   15872kB time=00:01:03.29 bitrate=2054.4kbits/s speed=0.357x    frame= 1583 fps=8.9 q=18.0 size=   15872kB time=00:01:03.50 bitrate=2047.6kbits/s speed=0.357x    frame= 1588 fps=8.9 q=18.0 size=   15872kB time=00:01:03.70 bitrate=2040.9kbits/s speed=0.357x    frame= 1593 fps=8.9 q=18.0 size=   15872kB time=00:01:03.91 bitrate=2034.3kbits/s speed=0.357x    frame= 1598 fps=8.9 q=18.0 size=   16128kB time=00:01:04.12 bitrate=2060.4kbits/s speed=0.357x    frame= 1602 fps=8.9 q=18.0 size=   16128kB time=00:01:04.29 bitrate=2055.0kbits/s speed=0.357x    frame= 1606 fps=8.9 q=18.0 size=   16128kB time=00:01:04.45 bitrate=2049.7kbits/s speed=0.357x    frame= 1611 fps=8.9 q=18.0 size=   16128kB time=00:01:04.66 bitrate=2043.1kbits/s speed=0.357x    frame= 1616 fps=8.9 q=18.0 size=   16128kB time=00:01:04.87 bitrate=2036.5kbits/s speed=0.357x    frame= 1621 fps=8.9 q=18.0 size=   16128kB time=00:01:05.08 bitrate=2030.0kbits/s speed=0.357x    frame= 1626 fps=8.9 q=19.0 size=   16384kB time=00:01:05.29 bitrate=2055.7kbits/s speed=0.357x    frame= 1631 fps=8.9 q=19.0 size=   16384kB time=00:01:05.50 bitrate=2049.1kbits/s speed=0.357x    frame= 1635 fps=8.9 q=19.0 size=   16640kB time=00:01:05.66 bitrate=2075.9kbits/s speed=0.357x    frame= 1640 fps=8.9 q=19.0 size=   16640kB time=00:01:05.87 bitrate=2069.3kbits/s speed=0.357x    frame= 1644 fps=8.9 q=19.0 size=   16896kB time=00:01:06.04 bitrate=2095.8kbits/s speed=0.357x    frame= 1648 fps=8.9 q=19.0 size=   16896kB time=00:01:06.20 bitrate=2090.6kbits/s speed=0.357x    frame= 1653 fps=8.9 q=19.0 size=   17152kB time=00:01:06.41 bitrate=2115.6kbits/s speed=0.357x    frame= 1658 fps=8.9 q=20.0 size=   17152kB time=00:01:06.62 bitrate=2109.0kbits/s speed=0.357x    frame= 1663 fps=8.9 q=19.0 size=   17152kB time=00:01:06.83 bitrate=2102.4kbits/s speed=0.357x    frame= 1668 fps=8.9 q=19.0 size=   17152kB time=00:01:07.04 bitrate=2095.9kbits/s speed=0.357x    frame= 1673 fps=8.9 q=19.0 size=   17152kB time=00:01:07.25 bitrate=2089.4kbits/s speed=0.357x    frame= 1678 fps=8.9 q=19.0 size=   17408kB time=00:01:07.45 bitrate=2114.0kbits/s speed=0.356x    frame= 1683 fps=8.9 q=19.0 size=   17408kB time=00:01:07.66 bitrate=2107.5kbits/s speed=0.356x    frame= 1688 fps=8.9 q=19.0 size=   17408kB time=00:01:07.87 bitrate=2101.0kbits/s speed=0.357x    frame= 1693 fps=8.9 q=19.0 size=   17408kB time=00:01:08.08 bitrate=2094.6kbits/s speed=0.357x    frame= 1698 fps=8.9 q=19.0 size=   17408kB time=00:01:08.29 bitrate=2088.2kbits/s speed=0.357x    frame= 1703 fps=8.9 q=16.0 size=   17408kB time=00:01:08.50 bitrate=2081.8kbits/s speed=0.357x    frame= 1708 fps=8.9 q=16.0 size=   17408kB time=00:01:08.70 bitrate=2075.5kbits/s speed=0.357x    frame= 1713 fps=8.9 q=16.0 size=   17408kB time=00:01:08.91 bitrate=2069.3kbits/s speed=0.357x    frame= 1718 fps=8.9 q=19.0 size=   17408kB time=00:01:09.12 bitrate=2063.0kbits/s speed=0.357x    frame= 1723 fps=8.9 q=16.0 size=   17664kB time=00:01:09.33 bitrate=2087.1kbits/s speed=0.357x    frame= 1728 fps=8.9 q=19.0 size=   17664kB time=00:01:09.54 bitrate=2080.8kbits/s speed=0.357x    frame= 1733 fps=8.9 q=19.0 size=   17664kB time=00:01:09.75 bitrate=2074.6kbits/s speed=0.357x    frame= 1738 fps=8.9 q=19.0 size=   17920kB time=00:01:09.95 bitrate=2098.4kbits/s speed=0.357x    frame= 1743 fps=8.9 q=19.0 size=   17920kB time=00:01:10.16 bitrate=2092.2kbits/s speed=0.357x    frame= 1748 fps=8.9 q=19.0 size=   17920kB time=00:01:10.37 bitrate=2086.0kbits/s speed=0.357x    frame= 1753 fps=8.9 q=19.0 size=   17920kB time=00:01:10.58 bitrate=2079.8kbits/s speed=0.357x    frame= 1758 fps=8.9 q=19.0 size=   17920kB time=00:01:10.79 bitrate=2073.7kbits/s speed=0.357x    frame= 1763 fps=8.9 q=19.0 size=   17920kB time=00:01:11.00 bitrate=2067.6kbits/s speed=0.357x    frame= 1768 fps=8.9 q=19.0 size=   17920kB time=00:01:11.20 bitrate=2061.6kbits/s speed=0.357x    frame= 1773 fps=8.9 q=19.0 size=   17920kB time=00:01:11.41 bitrate=2055.6kbits/s speed=0.357x    frame= 1778 fps=8.9 q=19.0 size=   18176kB time=00:01:11.62 bitrate=2078.9kbits/s speed=0.357x    frame= 1783 fps=8.9 q=16.0 size=   18176kB time=00:01:11.83 bitrate=2072.8kbits/s speed=0.358x    frame= 1788 fps=8.9 q=18.0 size=   18176kB time=00:01:12.04 bitrate=2066.8kbits/s speed=0.358x    frame= 1793 fps=8.9 q=18.0 size=   18176kB time=00:01:12.25 bitrate=2060.9kbits/s speed=0.358x    frame= 1798 fps=8.9 q=18.0 size=   18176kB time=00:01:12.45 bitrate=2054.9kbits/s speed=0.358x    frame= 1803 fps=8.9 q=18.0 size=   18176kB time=00:01:12.66 bitrate=2049.1kbits/s speed=0.358x    frame= 1808 fps=8.9 q=18.0 size=   18176kB time=00:01:12.87 bitrate=2043.2kbits/s speed=0.358x    frame= 1813 fps=8.9 q=18.0 size=   18176kB time=00:01:13.08 bitrate=2037.4kbits/s speed=0.358x    frame= 1818 fps=8.9 q=18.0 size=   18176kB time=00:01:13.29 bitrate=2031.6kbits/s speed=0.358x    frame= 1823 fps=8.9 q=18.0 size=   18176kB time=00:01:13.50 bitrate=2025.8kbits/s speed=0.358x    frame= 1828 fps=8.9 q=18.0 size=   18176kB time=00:01:13.70 bitrate=2020.1kbits/s speed=0.358x    frame= 1833 fps=8.9 q=18.0 size=   18176kB time=00:01:13.91 bitrate=2014.4kbits/s speed=0.358x    frame= 1838 fps=8.9 q=18.0 size=   18176kB time=00:01:14.12 bitrate=2008.7kbits/s speed=0.358x    frame= 1843 fps=8.9 q=18.0 size=   18176kB time=00:01:14.33 bitrate=2003.1kbits/s speed=0.358x    frame= 1848 fps=8.9 q=17.0 size=   18176kB time=00:01:14.54 bitrate=1997.5kbits/s speed=0.358x    frame= 1853 fps=8.9 q=17.0 size=   18176kB time=00:01:14.75 bitrate=1991.9kbits/s speed=0.358x    frame= 1858 fps=8.9 q=17.0 size=   18176kB time=00:01:14.95 bitrate=1986.4kbits/s speed=0.358x    frame= 1863 fps=8.9 q=17.0 size=   18176kB time=00:01:15.16 bitrate=1980.9kbits/s speed=0.359x    frame= 1868 fps=8.9 q=17.0 size=   18176kB time=00:01:15.37 bitrate=1975.4kbits/s speed=0.359x    frame= 1873 fps=8.9 q=17.0 size=   18176kB time=00:01:15.58 bitrate=1970.0kbits/s speed=0.359x    frame= 1878 fps=8.9 q=17.0 size=   18176kB time=00:01:15.79 bitrate=1964.6kbits/s speed=0.359x    frame= 1883 fps=8.9 q=17.0 size=   18432kB time=00:01:16.00 bitrate=1986.8kbits/s speed=0.359x    frame= 1888 fps=8.9 q=17.0 size=   18432kB time=00:01:16.20 bitrate=1981.3kbits/s speed=0.359x    frame= 1893 fps=8.9 q=17.0 size=   18432kB time=00:01:16.41 bitrate=1975.9kbits/s speed=0.359x    frame= 1898 fps=8.9 q=17.0 size=   18688kB time=00:01:16.62 bitrate=1997.9kbits/s speed=0.359x    frame= 1903 fps=8.9 q=17.0 size=   18688kB time=00:01:16.83 bitrate=1992.5kbits/s speed=0.359x    frame= 1908 fps=8.9 q=17.0 size=   18688kB time=00:01:17.04 bitrate=1987.1kbits/s speed=0.359x    frame= 1913 fps=8.9 q=18.0 size=   18944kB time=00:01:17.25 bitrate=2008.9kbits/s speed=0.359x    frame= 1918 fps=8.9 q=18.0 size=   18944kB time=00:01:17.45 bitrate=2003.5kbits/s speed=0.359x    frame= 1923 fps=8.9 q=18.0 size=   19200kB time=00:01:17.66 bitrate=2025.1kbits/s speed=0.359x    frame= 1928 fps=8.9 q=18.0 size=   19200kB time=00:01:17.87 bitrate=2019.7kbits/s speed=0.359x    frame= 1933 fps=8.9 q=18.0 size=   19456kB time=00:01:18.08 bitrate=2041.2kbits/s speed=0.359x    frame= 1938 fps=8.9 q=18.0 size=   19456kB time=00:01:18.29 bitrate=2035.8kbits/s speed=0.359x    frame= 1943 fps=8.9 q=18.0 size=   19456kB time=00:01:18.50 bitrate=2030.4kbits/s speed=0.359x    frame= 1948 fps=8.9 q=18.0 size=   19456kB time=00:01:18.70 bitrate=2025.0kbits/s speed=0.359x    frame= 1953 fps=8.9 q=18.0 size=   19456kB time=00:01:18.91 bitrate=2019.6kbits/s speed=0.36x    frame= 1958 fps=8.9 q=18.0 size=   19712kB time=00:01:19.12 bitrate=2040.8kbits/s speed=0.36x    frame= 1963 fps=8.9 q=18.0 size=   19712kB time=00:01:19.33 bitrate=2035.5kbits/s speed=0.36x    frame= 1968 fps=8.9 q=18.0 size=   19712kB time=00:01:19.54 bitrate=2030.1kbits/s speed=0.36x    frame= 1973 fps=8.9 q=18.0 size=   19712kB time=00:01:19.75 bitrate=2024.8kbits/s speed=0.36x    frame= 1978 fps=8.9 q=18.0 size=   19712kB time=00:01:19.95 bitrate=2019.6kbits/s speed=0.36x    frame= 1983 fps=8.9 q=18.0 size=   19712kB time=00:01:20.16 bitrate=2014.3kbits/s speed=0.36x    frame= 1988 fps=8.9 q=18.0 size=   19712kB time=00:01:20.37 bitrate=2009.1kbits/s speed=0.36x    frame= 1993 fps=8.9 q=18.0 size=   19968kB time=00:01:20.58 bitrate=2029.9kbits/s speed=0.36x    frame= 1998 fps=8.9 q=18.0 size=   19968kB time=00:01:20.79 bitrate=2024.7kbits/s speed=0.36x    frame= 2003 fps=8.9 q=18.0 size=   19968kB time=00:01:21.00 bitrate=2019.5kbits/s speed=0.36x    frame= 2007 fps=8.9 q=18.0 size=   19968kB time=00:01:21.16 bitrate=2015.3kbits/s speed=0.36x    frame= 2012 fps=8.9 q=18.0 size=   19968kB time=00:01:21.37 bitrate=2010.2kbits/s speed=0.36x    frame= 2017 fps=8.9 q=18.0 size=   19968kB time=00:01:21.58 bitrate=2005.0kbits/s speed=0.36x    frame= 2022 fps=8.9 q=18.0 size=   19968kB time=00:01:21.79 bitrate=1999.9kbits/s speed=0.36x    frame= 2027 fps=8.9 q=17.0 size=   19968kB time=00:01:22.00 bitrate=1994.9kbits/s speed=0.36x    frame= 2032 fps=8.9 q=17.0 size=   20224kB time=00:01:22.20 bitrate=2015.3kbits/s speed=0.36x    frame= 2037 fps=8.9 q=17.0 size=   20224kB time=00:01:22.41 bitrate=2010.2kbits/s speed=0.36x    frame= 2042 fps=8.9 q=17.0 size=   20224kB time=00:01:22.62 bitrate=2005.1kbits/s speed=0.36x    frame= 2047 fps=8.9 q=17.0 size=   20224kB time=00:01:22.83 bitrate=2000.1kbits/s speed=0.36x    frame= 2052 fps=8.9 q=17.0 size=   20224kB time=00:01:23.04 bitrate=1995.1kbits/s speed=0.36x    frame= 2057 fps=8.9 q=17.0 size=   20224kB time=00:01:23.25 bitrate=1990.1kbits/s speed=0.36x    frame= 2062 fps=8.9 q=18.0 size=   20480kB time=00:01:23.45 bitrate=2010.3kbits/s speed=0.36x    frame= 2067 fps=8.9 q=18.0 size=   20480kB time=00:01:23.66 bitrate=2005.2kbits/s speed=0.36x    frame= 2072 fps=8.9 q=18.0 size=   20480kB time=00:01:23.87 bitrate=2000.3kbits/s speed=0.36x    frame= 2077 fps=8.9 q=18.0 size=   20736kB time=00:01:24.08 bitrate=2020.3kbits/s speed=0.36x    frame= 2082 fps=8.9 q=18.0 size=   20736kB time=00:01:24.29 bitrate=2015.3kbits/s speed=0.36x    frame= 2087 fps=8.9 q=18.0 size=   20736kB time=00:01:24.50 bitrate=2010.3kbits/s speed=0.36x    frame= 2092 fps=8.9 q=18.0 size=   20736kB time=00:01:24.70 bitrate=2005.3kbits/s speed=0.36x    frame= 2097 fps=8.9 q=18.0 size=   20736kB time=00:01:24.91 bitrate=2000.4kbits/s speed=0.36x    frame= 2102 fps=8.9 q=18.0 size=   20992kB time=00:01:25.12 bitrate=2020.2kbits/s speed=0.36x    frame= 2107 fps=8.9 q=18.0 size=   20992kB time=00:01:25.33 bitrate=2015.2kbits/s speed=0.36x    frame= 2112 fps=8.9 q=18.0 size=   20992kB time=00:01:25.54 bitrate=2010.3kbits/s speed=0.36x    frame= 2117 fps=8.9 q=18.0 size=   20992kB time=00:01:25.75 bitrate=2005.4kbits/s speed=0.36x    frame= 2122 fps=8.9 q=18.0 size=   20992kB time=00:01:25.95 bitrate=2000.6kbits/s speed=0.36x    frame= 2127 fps=8.9 q=18.0 size=   21248kB time=00:01:26.16 bitrate=2020.1kbits/s speed=0.36x    frame= 2132 fps=8.9 q=17.0 size=   21248kB time=00:01:26.37 bitrate=2015.2kbits/s speed=0.361x    frame= 2137 fps=8.9 q=17.0 size=   21248kB time=00:01:26.58 bitrate=2010.4kbits/s speed=0.361x    frame= 2142 fps=8.9 q=17.0 size=   21248kB time=00:01:26.79 bitrate=2005.5kbits/s speed=0.361x    frame= 2147 fps=8.9 q=17.0 size=   21248kB time=00:01:27.00 bitrate=2000.7kbits/s speed=0.361x    frame= 2152 fps=8.9 q=17.0 size=   21248kB time=00:01:27.20 bitrate=1996.0kbits/s speed=0.361x    frame= 2157 fps=8.9 q=17.0 size=   21248kB time=00:01:27.41 bitrate=1991.2kbits/s speed=0.361x    frame= 2162 fps=8.9 q=17.0 size=   21248kB time=00:01:27.62 bitrate=1986.5kbits/s speed=0.361x    frame= 2167 fps=8.9 q=17.0 size=   21248kB time=00:01:27.83 bitrate=1981.8kbits/s speed=0.361x    frame= 2172 fps=8.9 q=17.0 size=   21248kB time=00:01:28.04 bitrate=1977.1kbits/s speed=0.361x    frame= 2177 fps=8.9 q=17.0 size=   21248kB time=00:01:28.25 bitrate=1972.4kbits/s speed=0.361x    frame= 2182 fps=8.9 q=17.0 size=   21248kB time=00:01:28.45 bitrate=1967.7kbits/s speed=0.361x    frame= 2187 fps=8.9 q=17.0 size=   21504kB time=00:01:28.66 bitrate=1986.8kbits/s speed=0.361x    frame= 2192 fps=8.9 q=17.0 size=   21504kB time=00:01:28.87 bitrate=1982.1kbits/s speed=0.361x    frame= 2197 fps=8.9 q=17.0 size=   21504kB time=00:01:29.08 bitrate=1977.5kbits/s speed=0.361x    frame= 2202 fps=8.9 q=17.0 size=   21504kB time=00:01:29.29 bitrate=1972.9kbits/s speed=0.361x    frame= 2207 fps=8.9 q=17.0 size=   21504kB time=00:01:29.50 bitrate=1968.3kbits/s speed=0.361x    frame= 2212 fps=8.9 q=17.0 size=   21760kB time=00:01:29.70 bitrate=1987.1kbits/s speed=0.361x    frame= 2217 fps=8.9 q=17.0 size=   21760kB time=00:01:29.91 bitrate=1982.5kbits/s speed=0.361x    frame= 2222 fps=8.9 q=17.0 size=   21760kB time=00:01:30.12 bitrate=1977.9kbits/s speed=0.361x    frame= 2227 fps=8.9 q=17.0 size=   21760kB time=00:01:30.33 bitrate=1973.3kbits/s speed=0.361x    frame= 2232 fps=8.9 q=17.0 size=   22016kB time=00:01:30.54 bitrate=1992.0kbits/s speed=0.361x    frame= 2237 fps=8.9 q=17.0 size=   22016kB time=00:01:30.75 bitrate=1987.4kbits/s speed=0.361x    frame= 2242 fps=8.9 q=17.0 size=   22016kB time=00:01:30.95 bitrate=1982.8kbits/s speed=0.362x    frame= 2247 fps=8.9 q=14.0 size=   22016kB time=00:01:31.16 bitrate=1978.3kbits/s speed=0.362x    frame= 2252 fps=8.9 q=17.0 size=   22016kB time=00:01:31.37 bitrate=1973.8kbits/s speed=0.362x    frame= 2257 fps=8.9 q=17.0 size=   22016kB time=00:01:31.58 bitrate=1969.3kbits/s speed=0.362x    frame= 2262 fps=8.9 q=17.0 size=   22272kB time=00:01:31.79 bitrate=1987.7kbits/s speed=0.362x    frame= 2267 fps=8.9 q=17.0 size=   22272kB time=00:01:32.00 bitrate=1983.2kbits/s speed=0.362x    frame= 2272 fps=8.9 q=17.0 size=   22528kB time=00:01:32.20 bitrate=2001.4kbits/s speed=0.362x    frame= 2277 fps=8.9 q=17.0 size=   22528kB time=00:01:32.41 bitrate=1996.9kbits/s speed=0.362x    frame= 2282 fps=8.9 q=17.0 size=   22528kB time=00:01:32.62 bitrate=1992.4kbits/s speed=0.362x    frame= 2287 fps=8.9 q=18.0 size=   22784kB time=00:01:32.83 bitrate=2010.6kbits/s speed=0.362x    frame= 2292 fps=8.9 q=18.0 size=   22784kB time=00:01:33.04 bitrate=2006.1kbits/s speed=0.362x    frame= 2297 fps=8.9 q=18.0 size=   22784kB time=00:01:33.25 bitrate=2001.6kbits/s speed=0.362x    frame= 2302 fps=8.9 q=18.0 size=   23040kB time=00:01:33.45 bitrate=2019.6kbits/s speed=0.362x    frame= 2307 fps=8.9 q=17.0 size=   23040kB time=00:01:33.66 bitrate=2015.1kbits/s speed=0.362x    frame= 2312 fps=8.9 q=17.0 size=   23040kB time=00:01:33.87 bitrate=2010.6kbits/s speed=0.362x    frame= 2317 fps=8.9 q=17.0 size=   23040kB time=00:01:34.08 bitrate=2006.1kbits/s speed=0.362x    frame= 2322 fps=8.9 q=17.0 size=   23040kB time=00:01:34.29 bitrate=2001.7kbits/s speed=0.362x    frame= 2327 fps=8.9 q=17.0 size=   23040kB time=00:01:34.50 bitrate=1997.3kbits/s speed=0.362x    frame= 2332 fps=8.9 q=17.0 size=   23040kB time=00:01:34.70 bitrate=1992.9kbits/s speed=0.362x    frame= 2337 fps=8.9 q=17.0 size=   23040kB time=00:01:34.91 bitrate=1988.5kbits/s speed=0.362x    frame= 2341 fps=8.9 q=17.0 size=   23040kB time=00:01:35.08 bitrate=1985.0kbits/s speed=0.362x    frame= 2345 fps=8.9 q=17.0 size=   23040kB time=00:01:35.25 bitrate=1981.6kbits/s speed=0.362x    frame= 2350 fps=8.9 q=14.0 size=   23296kB time=00:01:35.45 bitrate=1999.2kbits/s speed=0.362x    frame= 2354 fps=8.9 q=17.0 size=   23296kB time=00:01:35.62 bitrate=1995.7kbits/s speed=0.362x    frame= 2358 fps=8.9 q=18.0 size=   23552kB time=00:01:35.79 bitrate=2014.1kbits/s speed=0.362x    frame= 2363 fps=8.9 q=18.0 size=   23552kB time=00:01:36.00 bitrate=2009.8kbits/s speed=0.362x    frame= 2368 fps=8.9 q=18.0 size=   23552kB time=00:01:36.20 bitrate=2005.4kbits/s speed=0.362x    frame= 2373 fps=8.9 q=18.0 size=   23808kB time=00:01:36.41 bitrate=2022.8kbits/s speed=0.362x    frame= 2378 fps=8.9 q=15.0 size=   23808kB time=00:01:36.62 bitrate=2018.5kbits/s speed=0.362x    frame= 2383 fps=8.9 q=15.0 size=   24064kB time=00:01:36.83 bitrate=2035.8kbits/s speed=0.362x    frame= 2388 fps=8.9 q=18.0 size=   24064kB time=00:01:37.04 bitrate=2031.4kbits/s speed=0.362x    frame= 2393 fps=8.9 q=18.0 size=   24064kB time=00:01:37.25 bitrate=2027.1kbits/s speed=0.362x    frame= 2398 fps=8.9 q=18.0 size=   24320kB time=00:01:37.45 bitrate=2044.3kbits/s speed=0.362x    frame= 2403 fps=8.9 q=18.0 size=   24320kB time=00:01:37.66 bitrate=2039.9kbits/s speed=0.362x    frame= 2407 fps=8.9 q=18.0 size=   24320kB time=00:01:37.83 bitrate=2036.4kbits/s speed=0.362x    frame= 2412 fps=8.9 q=18.0 size=   24320kB time=00:01:38.04 bitrate=2032.1kbits/s speed=0.362x    frame= 2416 fps=8.9 q=18.0 size=   24320kB time=00:01:38.20 bitrate=2028.6kbits/s speed=0.362x    frame= 2421 fps=8.9 q=18.0 size=   24576kB time=00:01:38.41 bitrate=2045.7kbits/s speed=0.362x    frame= 2426 fps=8.9 q=18.0 size=   24576kB time=00:01:38.62 bitrate=2041.3kbits/s speed=0.362x    frame= 2431 fps=8.9 q=18.0 size=   24576kB time=00:01:38.83 bitrate=2037.0kbits/s speed=0.361x    frame= 2435 fps=8.9 q=18.0 size=   24576kB time=00:01:39.00 bitrate=2033.6kbits/s speed=0.361x    frame= 2440 fps=8.9 q=18.0 size=   24576kB time=00:01:39.20 bitrate=2029.3kbits/s speed=0.361x    frame= 2445 fps=8.9 q=18.0 size=   24576kB time=00:01:39.41 bitrate=2025.1kbits/s speed=0.361x    frame= 2450 fps=8.9 q=18.0 size=   24832kB time=00:01:39.62 bitrate=2041.9kbits/s speed=0.362x    frame= 2455 fps=8.9 q=18.0 size=   24832kB time=00:01:39.83 bitrate=2037.6kbits/s speed=0.362x    frame= 2460 fps=8.9 q=19.0 size=   25088kB time=00:01:40.04 bitrate=2054.4kbits/s speed=0.362x    frame= 2465 fps=8.9 q=19.0 size=   25088kB time=00:01:40.25 bitrate=2050.1kbits/s speed=0.362x    frame= 2470 fps=8.9 q=19.0 size=   25088kB time=00:01:40.45 bitrate=2045.8kbits/s speed=0.362x    frame= 2475 fps=8.9 q=19.0 size=   25344kB time=00:01:40.66 bitrate=2062.4kbits/s speed=0.362x    frame= 2480 fps=8.9 q=16.0 size=   25344kB time=00:01:40.87 bitrate=2058.2kbits/s speed=0.362x    frame= 2485 fps=8.9 q=19.0 size=   25344kB time=00:01:41.08 bitrate=2053.9kbits/s speed=0.362x    frame= 2490 fps=8.9 q=19.0 size=   25600kB time=00:01:41.29 bitrate=2070.4kbits/s speed=0.362x    frame= 2495 fps=8.9 q=19.0 size=   25600kB time=00:01:41.50 bitrate=2066.2kbits/s speed=0.362x    frame= 2500 fps=8.9 q=19.0 size=   25600kB time=00:01:41.70 bitrate=2061.9kbits/s speed=0.362x    frame= 2505 fps=8.9 q=19.0 size=   25600kB time=00:01:41.91 bitrate=2057.7kbits/s speed=0.362x    frame= 2510 fps=8.9 q=19.0 size=   25856kB time=00:01:42.12 bitrate=2074.1kbits/s speed=0.362x    frame= 2515 fps=8.9 q=19.0 size=   25856kB time=00:01:42.33 bitrate=2069.8kbits/s speed=0.362x    frame= 2520 fps=8.9 q=19.0 size=   25856kB time=00:01:42.54 bitrate=2065.6kbits/s speed=0.362x    frame= 2525 fps=8.9 q=19.0 size=   25856kB time=00:01:42.75 bitrate=2061.4kbits/s speed=0.362x    frame= 2530 fps=8.9 q=19.0 size=   25856kB time=00:01:42.95 bitrate=2057.3kbits/s speed=0.362x    frame= 2535 fps=8.9 q=19.0 size=   25856kB time=00:01:43.16 bitrate=2053.1kbits/s speed=0.362x    frame= 2540 fps=8.9 q=19.0 size=   25856kB time=00:01:43.37 bitrate=2049.0kbits/s speed=0.362x    frame= 2545 fps=8.9 q=19.0 size=   26112kB time=00:01:43.58 bitrate=2065.1kbits/s speed=0.362x    frame= 2550 fps=8.9 q=19.0 size=   26112kB time=00:01:43.79 bitrate=2061.0kbits/s speed=0.362x    frame= 2555 fps=8.9 q=19.0 size=   26112kB time=00:01:44.00 bitrate=2056.8kbits/s speed=0.362x    frame= 2560 fps=8.9 q=19.0 size=   26112kB time=00:01:44.20 bitrate=2052.7kbits/s speed=0.362x    frame= 2565 fps=8.9 q=18.0 size=   26112kB time=00:01:44.41 bitrate=2048.6kbits/s speed=0.363x    frame= 2570 fps=8.9 q=18.0 size=   26112kB time=00:01:44.62 bitrate=2044.5kbits/s speed=0.363x    frame= 2575 fps=8.9 q=18.0 size=   26112kB time=00:01:44.83 bitrate=2040.5kbits/s speed=0.363x    frame= 2580 fps=8.9 q=18.0 size=   26112kB time=00:01:45.04 bitrate=2036.4kbits/s speed=0.363x    frame= 2585 fps=8.9 q=18.0 size=   26112kB time=00:01:45.25 bitrate=2032.4kbits/s speed=0.363x    frame= 2590 fps=8.9 q=18.0 size=   26112kB time=00:01:45.45 bitrate=2028.4kbits/s speed=0.363x    frame= 2595 fps=8.9 q=18.0 size=   26112kB time=00:01:45.66 bitrate=2024.4kbits/s speed=0.363x    frame= 2600 fps=8.9 q=18.0 size=   26112kB time=00:01:45.87 bitrate=2020.4kbits/s speed=0.363x    frame= 2605 fps=8.9 q=18.0 size=   26112kB time=00:01:46.08 bitrate=2016.4kbits/s speed=0.363x    frame= 2610 fps=8.9 q=18.0 size=   26112kB time=00:01:46.29 bitrate=2012.5kbits/s speed=0.363x    frame= 2614 fps=8.9 q=18.0 size=   26112kB time=00:01:46.45 bitrate=2009.3kbits/s speed=0.363x    frame= 2618 fps=8.9 q=18.0 size=   26368kB time=00:01:46.62 bitrate=2025.9kbits/s speed=0.362x    frame= 2622 fps=8.9 q=18.0 size=   26368kB time=00:01:46.79 bitrate=2022.7kbits/s speed=0.362x    frame= 2627 fps=8.9 q=18.0 size=   26368kB time=00:01:47.00 bitrate=2018.8kbits/s speed=0.362x    frame= 2631 fps=8.9 q=18.0 size=   26368kB time=00:01:47.16 bitrate=2015.6kbits/s speed=0.362x    frame= 2636 fps=8.9 q=18.0 size=   26368kB time=00:01:47.37 bitrate=2011.7kbits/s speed=0.362x    frame= 2640 fps=8.9 q=18.0 size=   26368kB time=00:01:47.54 bitrate=2008.6kbits/s speed=0.362x    frame= 2644 fps=8.9 q=18.0 size=   26624kB time=00:01:47.70 bitrate=2025.0kbits/s speed=0.362x    frame= 2649 fps=8.9 q=18.0 size=   26624kB time=00:01:47.91 bitrate=2021.0kbits/s speed=0.362x    frame= 2654 fps=8.9 q=18.0 size=   26880kB time=00:01:48.12 bitrate=2036.5kbits/s speed=0.362x    frame= 2659 fps=8.9 q=18.0 size=   26880kB time=00:01:48.33 bitrate=2032.6kbits/s speed=0.362x    frame= 2664 fps=8.9 q=18.0 size=   26880kB time=00:01:48.54 bitrate=2028.7kbits/s speed=0.362x    frame= 2669 fps=8.9 q=15.0 size=   27136kB time=00:01:48.75 bitrate=2044.1kbits/s speed=0.362x    frame= 2674 fps=8.9 q=18.0 size=   27136kB time=00:01:48.95 bitrate=2040.2kbits/s speed=0.362x    frame= 2679 fps=8.9 q=15.0 size=   27136kB time=00:01:49.16 bitrate=2036.3kbits/s speed=0.362x    frame= 2684 fps=8.9 q=19.0 size=   27392kB time=00:01:49.37 bitrate=2051.6kbits/s speed=0.362x    frame= 2688 fps=8.9 q=19.0 size=   27392kB time=00:01:49.54 bitrate=2048.5kbits/s speed=0.362x    frame= 2692 fps=8.9 q=15.0 size=   27392kB time=00:01:49.70 bitrate=2045.4kbits/s speed=0.362x    frame= 2696 fps=8.9 q=19.0 size=   27392kB time=00:01:49.87 bitrate=2042.3kbits/s speed=0.362x    frame= 2700 fps=8.9 q=19.0 size=   27648kB time=00:01:50.04 bitrate=2058.2kbits/s speed=0.362x    frame= 2704 fps=8.9 q=19.0 size=   27648kB time=00:01:50.20 bitrate=2055.1kbits/s speed=0.361x    frame= 2708 fps=8.9 q=19.0 size=   27904kB time=00:01:50.37 bitrate=2071.0kbits/s speed=0.361x    frame= 2712 fps=8.9 q=19.0 size=   27904kB time=00:01:50.54 bitrate=2067.9kbits/s speed=0.361x    frame= 2717 fps=8.9 q=19.0 size=   27904kB time=00:01:50.75 bitrate=2064.0kbits/s speed=0.361x    frame= 2721 fps=8.9 q=19.0 size=   27904kB time=00:01:50.91 bitrate=2060.9kbits/s speed=0.361x    frame= 2725 fps=8.9 q=19.0 size=   27904kB time=00:01:51.08 bitrate=2057.8kbits/s speed=0.361x    frame= 2730 fps=8.9 q=19.0 size=   28160kB time=00:01:51.29 bitrate=2072.8kbits/s speed=0.361x    frame= 2735 fps=8.9 q=19.0 size=   28160kB time=00:01:51.50 bitrate=2068.9kbits/s speed=0.361x    frame= 2740 fps=8.9 q=19.0 size=   28160kB time=00:01:51.70 bitrate=2065.1kbits/s speed=0.361x    frame= 2745 fps=8.9 q=19.0 size=   28416kB time=00:01:51.91 bitrate=2080.0kbits/s speed=0.361x    frame= 2750 fps=8.9 q=19.0 size=   28416kB time=00:01:52.12 bitrate=2076.1kbits/s speed=0.361x    frame= 2755 fps=8.9 q=19.0 size=   28416kB time=00:01:52.33 bitrate=2072.3kbits/s speed=0.361x    frame= 2760 fps=8.9 q=19.0 size=   28416kB time=00:01:52.54 bitrate=2068.4kbits/s speed=0.361x    frame= 2765 fps=8.9 q=19.0 size=   28672kB time=00:01:52.75 bitrate=2083.2kbits/s speed=0.361x    frame= 2770 fps=8.9 q=19.0 size=   28672kB time=00:01:52.95 bitrate=2079.4kbits/s speed=0.361x    frame= 2775 fps=8.9 q=19.0 size=   28672kB time=00:01:53.16 bitrate=2075.5kbits/s speed=0.361x    frame= 2780 fps=8.9 q=19.0 size=   28672kB time=00:01:53.37 bitrate=2071.7kbits/s speed=0.361x    frame= 2785 fps=8.9 q=19.0 size=   28672kB time=00:01:53.58 bitrate=2067.9kbits/s speed=0.361x    frame= 2790 fps=8.9 q=16.0 size=   28928kB time=00:01:53.79 bitrate=2082.6kbits/s speed=0.361x    frame= 2794 fps=8.9 q=19.0 size=   28928kB time=00:01:53.95 bitrate=2079.5kbits/s speed=0.361x    frame= 2799 fps=8.9 q=19.0 size=   28928kB time=00:01:54.16 bitrate=2075.7kbits/s speed=0.361x    frame= 2803 fps=8.9 q=19.0 size=   28928kB time=00:01:54.33 bitrate=2072.7kbits/s speed=0.361x    frame= 2807 fps=8.9 q=19.0 size=   28928kB time=00:01:54.50 bitrate=2069.7kbits/s speed=0.361x    frame= 2811 fps=8.8 q=19.0 size=   28928kB time=00:01:54.66 bitrate=2066.7kbits/s speed=0.361x    frame= 2816 fps=8.8 q=19.0 size=   28928kB time=00:01:54.87 bitrate=2062.9kbits/s speed=0.361x    frame= 2821 fps=8.8 q=19.0 size=   29184kB time=00:01:55.08 bitrate=2077.4kbits/s speed=0.361x    frame= 2826 fps=8.8 q=19.0 size=   29184kB time=00:01:55.29 bitrate=2073.7kbits/s speed=0.361x    frame= 2831 fps=8.8 q=19.0 size=   29184kB time=00:01:55.50 bitrate=2069.9kbits/s speed=0.361x    frame= 2836 fps=8.8 q=19.0 size=   29184kB time=00:01:55.70 bitrate=2066.2kbits/s speed=0.361x    frame= 2841 fps=8.8 q=19.0 size=   29184kB time=00:01:55.91 bitrate=2062.5kbits/s speed=0.361x    frame= 2846 fps=8.8 q=19.0 size=   29184kB time=00:01:56.12 bitrate=2058.8kbits/s speed=0.361x    frame= 2851 fps=8.9 q=19.0 size=   29184kB time=00:01:56.33 bitrate=2055.1kbits/s speed=0.361x    frame= 2856 fps=8.9 q=19.0 size=   29184kB time=00:01:56.54 bitrate=2051.4kbits/s speed=0.361x    frame= 2861 fps=8.9 q=19.0 size=   29184kB time=00:01:56.75 bitrate=2047.8kbits/s speed=0.361x    frame= 2866 fps=8.9 q=19.0 size=   29184kB time=00:01:56.95 bitrate=2044.1kbits/s speed=0.361x    frame= 2871 fps=8.9 q=16.0 size=   29440kB time=00:01:57.16 bitrate=2058.4kbits/s speed=0.361x    frame= 2876 fps=8.9 q=19.0 size=   29440kB time=00:01:57.37 bitrate=2054.7kbits/s speed=0.361x    frame= 2881 fps=8.9 q=19.0 size=   29440kB time=00:01:57.58 bitrate=2051.1kbits/s speed=0.361x    frame= 2886 fps=8.9 q=19.0 size=   29696kB time=00:01:57.79 bitrate=2065.3kbits/s speed=0.361x    frame= 2890 fps=8.9 q=16.0 size=   29696kB time=00:01:57.95 bitrate=2062.3kbits/s speed=0.361x    frame= 2894 fps=8.8 q=19.0 size=   29696kB time=00:01:58.12 bitrate=2059.4kbits/s speed=0.361x    frame= 2898 fps=8.8 q=19.0 size=   29696kB time=00:01:58.29 bitrate=2056.5kbits/s speed=0.361x    frame= 2902 fps=8.8 q=19.0 size=   29952kB time=00:01:58.45 bitrate=2071.3kbits/s speed=0.361x    frame= 2906 fps=8.8 q=19.0 size=   29952kB time=00:01:58.62 bitrate=2068.4kbits/s speed=0.361x    frame= 2911 fps=8.8 q=19.0 size=   29952kB time=00:01:58.83 bitrate=2064.8kbits/s speed=0.361x    frame= 2915 fps=8.8 q=19.0 size=   30208kB time=00:01:59.00 bitrate=2079.5kbits/s speed=0.361x    frame= 2920 fps=8.8 q=19.0 size=   30208kB time=00:01:59.20 bitrate=2075.9kbits/s speed=0.361x    frame= 2924 fps=8.8 q=19.0 size=   30208kB time=00:01:59.37 bitrate=2073.0kbits/s speed=0.361x    frame= 2928 fps=8.8 q=19.0 size=   30208kB time=00:01:59.54 bitrate=2070.1kbits/s speed=0.361x    frame= 2932 fps=8.8 q=19.0 size=   30208kB time=00:01:59.70 bitrate=2067.2kbits/s speed=0.36x    frame= 2936 fps=8.8 q=20.0 size=   30464kB time=00:01:59.87 bitrate=2081.8kbits/s speed=0.36x    frame= 2940 fps=8.8 q=20.0 size=   30464kB time=00:02:00.04 bitrate=2079.0kbits/s speed=0.36x    frame= 2944 fps=8.8 q=20.0 size=   30464kB time=00:02:00.20 bitrate=2076.1kbits/s speed=0.36x    frame= 2948 fps=8.8 q=20.0 size=   30464kB time=00:02:00.37 bitrate=2073.2kbits/s speed=0.36x    frame= 2952 fps=8.8 q=19.0 size=   30464kB time=00:02:00.54 bitrate=2070.3kbits/s speed=0.36x    frame= 2957 fps=8.8 q=19.0 size=   30464kB time=00:02:00.75 bitrate=2066.8kbits/s speed=0.36x    frame= 2961 fps=8.8 q=19.0 size=   30464kB time=00:02:00.91 bitrate=2063.9kbits/s speed=0.36x    frame= 2966 fps=8.8 q=19.0 size=   30720kB time=00:02:01.12 bitrate=2077.7kbits/s speed=0.36x    frame= 2970 fps=8.8 q=19.0 size=   30720kB time=00:02:01.29 bitrate=2074.8kbits/s speed=0.36x    frame= 2974 fps=8.8 q=19.0 size=   30720kB time=00:02:01.45 bitrate=2072.0kbits/s speed=0.36x    frame= 2978 fps=8.8 q=19.0 size=   30720kB time=00:02:01.62 bitrate=2069.1kbits/s speed=0.36x    frame= 2982 fps=8.8 q=19.0 size=   30720kB time=00:02:01.79 bitrate=2066.3kbits/s speed=0.36x    frame= 2987 fps=8.8 q=19.0 size=   30720kB time=00:02:02.00 bitrate=2062.8kbits/s speed=0.36x    frame= 2992 fps=8.8 q=19.0 size=   30720kB time=00:02:02.20 bitrate=2059.3kbits/s speed=0.36x    frame= 2997 fps=8.8 q=19.0 size=   30720kB time=00:02:02.41 bitrate=2055.8kbits/s speed=0.36x    frame= 3002 fps=8.8 q=19.0 size=   30720kB time=00:02:02.62 bitrate=2052.3kbits/s speed=0.36x    frame= 3007 fps=8.8 q=19.0 size=   30720kB time=00:02:02.83 bitrate=2048.8kbits/s speed=0.36x    frame= 3012 fps=8.8 q=19.0 size=   30720kB time=00:02:03.04 bitrate=2045.3kbits/s speed=0.36x    frame= 3017 fps=8.8 q=19.0 size=   30720kB time=00:02:03.25 bitrate=2041.9kbits/s speed=0.36x    frame= 3022 fps=8.8 q=19.0 size=   30720kB time=00:02:03.45 bitrate=2038.4kbits/s speed=0.36x    frame= 3027 fps=8.8 q=19.0 size=   30720kB time=00:02:03.66 bitrate=2035.0kbits/s speed=0.36x    frame= 3032 fps=8.8 q=19.0 size=   30720kB time=00:02:03.87 bitrate=2031.6kbits/s speed=0.36x    frame= 3037 fps=8.8 q=19.0 size=   30976kB time=00:02:04.08 bitrate=2045.0kbits/s speed=0.36x    frame= 3042 fps=8.8 q=16.0 size=   30976kB time=00:02:04.29 bitrate=2041.6kbits/s speed=0.36x    frame= 3047 fps=8.8 q=19.0 size=   30976kB time=00:02:04.50 bitrate=2038.2kbits/s speed=0.36x    frame= 3052 fps=8.8 q=19.0 size=   30976kB time=00:02:04.70 bitrate=2034.8kbits/s speed=0.36x    frame= 3057 fps=8.8 q=19.0 size=   31232kB time=00:02:04.91 bitrate=2048.2kbits/s speed=0.36x    frame= 3062 fps=8.8 q=19.0 size=   31232kB time=00:02:05.12 bitrate=2044.8kbits/s speed=0.36x    frame= 3067 fps=8.8 q=19.0 size=   31232kB time=00:02:05.33 bitrate=2041.4kbits/s speed=0.36x    frame= 3072 fps=8.8 q=19.0 size=   31232kB time=00:02:05.54 bitrate=2038.0kbits/s speed=0.36x    frame= 3077 fps=8.8 q=19.0 size=   31232kB time=00:02:05.75 bitrate=2034.6kbits/s speed=0.36x    frame= 3082 fps=8.8 q=19.0 size=   31232kB time=00:02:05.95 bitrate=2031.2kbits/s speed=0.36x    frame= 3087 fps=8.8 q=19.0 size=   31488kB time=00:02:06.16 bitrate=2044.5kbits/s speed=0.36x    frame= 3092 fps=8.8 q=19.0 size=   31488kB time=00:02:06.37 bitrate=2041.1kbits/s speed=0.36x    frame= 3097 fps=8.8 q=19.0 size=   31488kB time=00:02:06.58 bitrate=2037.8kbits/s speed=0.36x    frame= 3102 fps=8.8 q=19.0 size=   31488kB time=00:02:06.79 bitrate=2034.4kbits/s speed=0.36x    frame= 3107 fps=8.8 q=19.0 size=   31488kB time=00:02:07.00 bitrate=2031.1kbits/s speed=0.36x    frame= 3112 fps=8.8 q=18.0 size=   31488kB time=00:02:07.20 bitrate=2027.8kbits/s speed=0.361x    frame= 3117 fps=8.8 q=18.0 size=   31488kB time=00:02:07.41 bitrate=2024.5kbits/s speed=0.361x    frame= 3122 fps=8.8 q=18.0 size=   31744kB time=00:02:07.62 bitrate=2037.6kbits/s speed=0.361x    frame= 3127 fps=8.8 q=18.0 size=   31744kB time=00:02:07.83 bitrate=2034.3kbits/s speed=0.361x    frame= 3132 fps=8.8 q=15.0 size=   31744kB time=00:02:08.04 bitrate=2031.0kbits/s speed=0.361x    frame= 3137 fps=8.8 q=18.0 size=   31744kB time=00:02:08.25 bitrate=2027.7kbits/s speed=0.361x    frame= 3142 fps=8.8 q=18.0 size=   31744kB time=00:02:08.45 bitrate=2024.4kbits/s speed=0.361x    frame= 3147 fps=8.8 q=18.0 size=   31744kB time=00:02:08.66 bitrate=2021.1kbits/s speed=0.361x    frame= 3152 fps=8.8 q=18.0 size=   31744kB time=00:02:08.87 bitrate=2017.8kbits/s speed=0.361x    frame= 3157 fps=8.8 q=18.0 size=   31744kB time=00:02:09.08 bitrate=2014.6kbits/s speed=0.361x    frame= 3162 fps=8.8 q=18.0 size=   32000kB time=00:02:09.29 bitrate=2027.5kbits/s speed=0.361x    frame= 3166 fps=8.8 q=18.0 size=   32000kB time=00:02:09.45 bitrate=2024.9kbits/s speed=0.361x    frame= 3171 fps=8.8 q=18.0 size=   32000kB time=00:02:09.66 bitrate=2021.7kbits/s speed=0.361x    frame= 3175 fps=8.8 q=18.0 size=   32256kB time=00:02:09.83 bitrate=2035.2kbits/s speed=0.361x    frame= 3179 fps=8.8 q=18.0 size=   32256kB time=00:02:10.00 bitrate=2032.6kbits/s speed=0.361x    frame= 3184 fps=8.8 q=18.0 size=   32256kB time=00:02:10.20 bitrate=2029.4kbits/s speed=0.361x    frame= 3189 fps=8.8 q=18.0 size=   32256kB time=00:02:10.41 bitrate=2026.1kbits/s speed=0.36x    frame= 3194 fps=8.8 q=18.0 size=   32256kB time=00:02:10.62 bitrate=2022.9kbits/s speed=0.36x    frame= 3199 fps=8.8 q=18.0 size=   32256kB time=00:02:10.83 bitrate=2019.7kbits/s speed=0.36x    frame= 3204 fps=8.8 q=18.0 size=   32256kB time=00:02:11.04 bitrate=2016.5kbits/s speed=0.36x    frame= 3209 fps=8.8 q=18.0 size=   32512kB time=00:02:11.25 bitrate=2029.2kbits/s speed=0.361x    frame= 3214 fps=8.8 q=18.0 size=   32512kB time=00:02:11.45 bitrate=2026.0kbits/s speed=0.361x    frame= 3219 fps=8.8 q=18.0 size=   32512kB time=00:02:11.66 bitrate=2022.8kbits/s speed=0.361x    frame= 3224 fps=8.8 q=18.0 size=   32512kB time=00:02:11.87 bitrate=2019.6kbits/s speed=0.361x    frame= 3229 fps=8.8 q=18.0 size=   32512kB time=00:02:12.08 bitrate=2016.4kbits/s speed=0.361x    frame= 3234 fps=8.8 q=18.0 size=   32512kB time=00:02:12.29 bitrate=2013.3kbits/s speed=0.361x    frame= 3239 fps=8.8 q=18.0 size=   32512kB time=00:02:12.50 bitrate=2010.1kbits/s speed=0.361x    frame= 3244 fps=8.8 q=18.0 size=   32512kB time=00:02:12.70 bitrate=2006.9kbits/s speed=0.361x    frame= 3249 fps=8.8 q=18.0 size=   32512kB time=00:02:12.91 bitrate=2003.8kbits/s speed=0.361x    frame= 3254 fps=8.8 q=18.0 size=   32512kB time=00:02:13.12 bitrate=2000.7kbits/s speed=0.361x    frame= 3259 fps=8.8 q=18.0 size=   32512kB time=00:02:13.33 bitrate=1997.5kbits/s speed=0.361x    frame= 3263 fps=8.8 q=18.0 size=   32768kB time=00:02:13.50 bitrate=2010.8kbits/s speed=0.361x    frame= 3267 fps=8.8 q=18.0 size=   32768kB time=00:02:13.66 bitrate=2008.2kbits/s speed=0.361x    frame= 3271 fps=8.8 q=18.0 size=   32768kB time=00:02:13.83 bitrate=2005.7kbits/s speed=0.36x    frame= 3275 fps=8.8 q=18.0 size=   33024kB time=00:02:14.00 bitrate=2018.9kbits/s speed=0.36x    [NULL @ 0x7faa7f000000] Invalid maxval: 0
    Last message repeated 1 times
frame= 3279 fps=8.8 q=18.0 size=   33024kB time=00:02:14.16 bitrate=2016.4kbits/s speed=0.36x    frame= 3283 fps=8.8 q=18.0 size=   33024kB time=00:02:14.33 bitrate=2013.9kbits/s speed=0.36x    frame= 3287 fps=8.8 q=18.0 size=   33280kB time=00:02:14.50 bitrate=2027.0kbits/s speed=0.36x    frame= 3292 fps=8.8 q=19.0 size=   33280kB time=00:02:14.70 bitrate=2023.9kbits/s speed=0.36x    frame= 3297 fps=8.8 q=19.0 size=   33536kB time=00:02:14.91 bitrate=2036.3kbits/s speed=0.36x    frame= 3302 fps=8.8 q=19.0 size=   33536kB time=00:02:15.12 bitrate=2033.1kbits/s speed=0.36x    frame= 3306 fps=8.8 q=19.0 size=   33792kB time=00:02:15.29 bitrate=2046.1kbits/s speed=0.36x    frame= 3311 fps=8.8 q=19.0 size=   33792kB time=00:02:15.50 bitrate=2043.0kbits/s speed=0.36x    frame= 3316 fps=8.8 q=19.0 size=   33792kB time=00:02:15.70 bitrate=2039.8kbits/s speed=0.36x    frame= 3321 fps=8.8 q=19.0 size=   33792kB time=00:02:15.91 bitrate=2036.7kbits/s speed=0.36x    frame= 3326 fps=8.8 q=19.0 size=   33792kB time=00:02:16.12 bitrate=2033.6kbits/s speed=0.36x    frame= 3330 fps=8.8 q=19.0 size=   33792kB time=00:02:16.29 bitrate=2031.1kbits/s speed=0.36x    frame= 3335 fps=8.8 q=19.0 size=   34048kB time=00:02:16.50 bitrate=2043.4kbits/s speed=0.36x    frame= 3340 fps=8.8 q=19.0 size=   34048kB time=00:02:16.70 bitrate=2040.3kbits/s speed=0.36x    frame= 3345 fps=8.8 q=19.0 size=   34048kB time=00:02:16.91 bitrate=2037.2kbits/s speed=0.36x    frame= 3350 fps=8.8 q=19.0 size=   34048kB time=00:02:17.12 bitrate=2034.1kbits/s speed=0.36x    frame= 3355 fps=8.8 q=19.0 size=   34304kB time=00:02:17.33 bitrate=2046.3kbits/s speed=0.36x    frame= 3360 fps=8.8 q=19.0 size=   34304kB time=00:02:17.54 bitrate=2043.2kbits/s speed=0.36x    frame= 3365 fps=8.8 q=19.0 size=   34304kB time=00:02:17.75 bitrate=2040.1kbits/s speed=0.36x    frame= 3370 fps=8.8 q=19.0 size=   34304kB time=00:02:17.95 bitrate=2037.0kbits/s speed=0.36x    frame= 3375 fps=8.8 q=19.0 size=   34304kB time=00:02:18.16 bitrate=2033.9kbits/s speed=0.36x    frame= 3380 fps=8.8 q=19.0 size=   34304kB time=00:02:18.37 bitrate=2030.8kbits/s speed=0.36x    frame= 3385 fps=8.8 q=19.0 size=   34560kB time=00:02:18.58 bitrate=2042.9kbits/s speed=0.36x    frame= 3390 fps=8.8 q=16.0 size=   34560kB time=00:02:18.79 bitrate=2039.9kbits/s speed=0.36x    frame= 3395 fps=8.8 q=19.0 size=   34560kB time=00:02:19.00 bitrate=2036.8kbits/s speed=0.36x    frame= 3400 fps=8.8 q=19.0 size=   34816kB time=00:02:19.20 bitrate=2048.8kbits/s speed=0.36x    frame= 3405 fps=8.8 q=19.0 size=   34816kB time=00:02:19.41 bitrate=2045.8kbits/s speed=0.36x    frame= 3410 fps=8.8 q=19.0 size=   34816kB time=00:02:19.62 bitrate=2042.7kbits/s speed=0.36x    frame= 3415 fps=8.8 q=19.0 size=   34816kB time=00:02:19.83 bitrate=2039.7kbits/s speed=0.36x    frame= 3420 fps=8.8 q=19.0 size=   34816kB time=00:02:20.04 bitrate=2036.6kbits/s speed=0.36x    frame= 3425 fps=8.8 q=19.0 size=   34816kB time=00:02:20.25 bitrate=2033.6kbits/s speed=0.36x    frame= 3430 fps=8.8 q=19.0 size=   34816kB time=00:02:20.45 bitrate=2030.6kbits/s speed=0.36x    frame= 3435 fps=8.8 q=19.0 size=   34816kB time=00:02:20.66 bitrate=2027.6kbits/s speed=0.36x    frame= 3440 fps=8.8 q=19.0 size=   35072kB time=00:02:20.87 bitrate=2039.5kbits/s speed=0.36x    frame= 3445 fps=8.8 q=19.0 size=   35072kB time=00:02:21.08 bitrate=2036.5kbits/s speed=0.36x    frame= 3450 fps=8.8 q=19.0 size=   35072kB time=00:02:21.29 bitrate=2033.5kbits/s speed=0.36x    frame= 3455 fps=8.8 q=18.0 size=   35072kB time=00:02:21.50 bitrate=2030.5kbits/s speed=0.361x    frame= 3460 fps=8.8 q=19.0 size=   35072kB time=00:02:21.70 bitrate=2027.5kbits/s speed=0.361x    frame= 3465 fps=8.8 q=16.0 size=   35072kB time=00:02:21.91 bitrate=2024.5kbits/s speed=0.361x    frame= 3470 fps=8.8 q=19.0 size=   35328kB time=00:02:22.12 bitrate=2036.3kbits/s speed=0.361x    frame= 3475 fps=8.8 q=19.0 size=   35328kB time=00:02:22.33 bitrate=2033.3kbits/s speed=0.361x    frame= 3480 fps=8.8 q=19.0 size=   35328kB time=00:02:22.54 bitrate=2030.3kbits/s speed=0.361x    frame= 3485 fps=8.8 q=16.0 size=   35584kB time=00:02:22.75 bitrate=2042.1kbits/s speed=0.361x    frame= 3490 fps=8.8 q=19.0 size=   35584kB time=00:02:22.95 bitrate=2039.1kbits/s speed=0.361x    frame= 3495 fps=8.8 q=19.0 size=   35584kB time=00:02:23.16 bitrate=2036.1kbits/s speed=0.361x    frame= 3500 fps=8.8 q=19.0 size=   35840kB time=00:02:23.37 bitrate=2047.8kbits/s speed=0.361x    frame= 3505 fps=8.8 q=19.0 size=   35840kB time=00:02:23.58 bitrate=2044.8kbits/s speed=0.361x    frame= 3510 fps=8.8 q=19.0 size=   35840kB time=00:02:23.79 bitrate=2041.9kbits/s speed=0.361x    frame= 3515 fps=8.8 q=19.0 size=   35840kB time=00:02:24.00 bitrate=2038.9kbits/s speed=0.361x    frame= 3520 fps=8.8 q=19.0 size=   36096kB time=00:02:24.20 bitrate=2050.5kbits/s speed=0.361x    frame= 3525 fps=8.8 q=19.0 size=   36096kB time=00:02:24.41 bitrate=2047.5kbits/s speed=0.361x    frame= 3530 fps=8.8 q=19.0 size=   36096kB time=00:02:24.62 bitrate=2044.6kbits/s speed=0.361x    frame= 3535 fps=8.8 q=19.0 size=   36352kB time=00:02:24.83 bitrate=2056.1kbits/s speed=0.361x    frame= 3540 fps=8.8 q=19.0 size=   36352kB time=00:02:25.04 bitrate=2053.2kbits/s speed=0.361x    frame= 3545 fps=8.8 q=19.0 size=   36608kB time=00:02:25.25 bitrate=2064.7kbits/s speed=0.361x    frame= 3550 fps=8.8 q=19.0 size=   36608kB time=00:02:25.45 bitrate=2061.7kbits/s speed=0.361x    frame= 3555 fps=8.8 q=19.0 size=   36608kB time=00:02:25.66 bitrate=2058.8kbits/s speed=0.361x    frame= 3560 fps=8.8 q=19.0 size=   36608kB time=00:02:25.87 bitrate=2055.8kbits/s speed=0.361x    frame= 3565 fps=8.8 q=19.0 size=   36864kB time=00:02:26.08 bitrate=2067.2kbits/s speed=0.361x    frame= 3570 fps=8.8 q=19.0 size=   36864kB time=00:02:26.29 bitrate=2064.3kbits/s speed=0.361x    frame= 3575 fps=8.8 q=19.0 size=   36864kB time=00:02:26.50 bitrate=2061.4kbits/s speed=0.361x    frame= 3580 fps=8.8 q=20.0 size=   36864kB time=00:02:26.70 bitrate=2058.4kbits/s speed=0.361x    frame= 3585 fps=8.8 q=20.0 size=   37120kB time=00:02:26.91 bitrate=2069.8kbits/s speed=0.361x    frame= 3590 fps=8.8 q=20.0 size=   37120kB time=00:02:27.12 bitrate=2066.9kbits/s speed=0.361x    frame= 3595 fps=8.8 q=19.0 size=   37120kB time=00:02:27.33 bitrate=2063.9kbits/s speed=0.361x    frame= 3600 fps=8.8 q=19.0 size=   37120kB time=00:02:27.54 bitrate=2061.0kbits/s speed=0.361x    frame= 3601 fps=8.0 q=-1.0 Lsize=   37322kB time=00:02:29.91 bitrate=2039.4kbits/s speed=0.334x    
video:37283kB audio:0kB subtitle:0kB other streams:0kB global headers:0kB muxing overhead: 0.105994%
[libx264 @ 0x7faa7d00c200] frame I:148   Avg QP: 8.23  size: 33610
[libx264 @ 0x7faa7d00c200] frame P:1409  Avg QP:10.76  size: 14600
[libx264 @ 0x7faa7d00c200] frame B:2044  Avg QP:12.37  size:  6180
[libx264 @ 0x7faa7d00c200] consecutive B-frames: 17.7% 15.0% 14.7% 52.7%
[libx264 @ 0x7faa7d00c200] mb I  I16..4: 18.1% 22.4% 59.5%
[libx264 @ 0x7faa7d00c200] mb P  I16..4:  8.5% 14.6% 18.8%  P16..4: 19.1% 13.1% 12.3%  0.0%  0.0%    skip:13.8%
[libx264 @ 0x7faa7d00c200] mb B  I16..4:  2.5%  2.6%  3.1%  B16..8: 22.3% 14.3%  7.0%  direct:10.5%  skip:37.7%  L0:48.1% L1:45.8% BI: 6.1%
[libx264 @ 0x7faa7d00c200] final ratefactor: 12.45
[libx264 @ 0x7faa7d00c200] 8x8 transform intra:32.2% inter:43.2%
[libx264 @ 0x7faa7d00c200] coded y,uvDC,uvAC intra: 47.8% 65.1% 58.3% inter: 24.0% 27.4% 9.2%
[libx264 @ 0x7faa7d00c200] i16 v,h,dc,p: 65% 22% 10%  2%
[libx264 @ 0x7faa7d00c200] i8 v,h,dc,ddl,ddr,vr,hd,vl,hu: 30% 18% 33%  3%  3%  2%  4%  2%  4%
[libx264 @ 0x7faa7d00c200] i4 v,h,dc,ddl,ddr,vr,hd,vl,hu: 36% 27% 16%  3%  4%  3%  5%  3%  4%
[libx264 @ 0x7faa7d00c200] i8c dc,h,v,p: 61% 19% 17%  3%
[libx264 @ 0x7faa7d00c200] Weighted P-Frames: Y:17.9% UV:7.5%
[libx264 @ 0x7faa7d00c200] ref P L0: 66.2%  9.6% 12.9%  8.2%  3.0%
[libx264 @ 0x7faa7d00c200] ref B L0: 83.1% 13.8%  3.0%
[libx264 @ 0x7faa7d00c200] ref B L1: 94.7%  5.3%
[libx264 @ 0x7faa7d00c200] kb/s:2035.53
Exiting normally, received signal 2.
